<svg version="1.0" xmlns="http://www.w3.org/2000/svg" width="1184" height="1184" viewBox="0 0 888 888"><path d="M322.8 96.5c-.2.1-3.4.5-7.3.8-3.8.3-7.7.8-8.5 1.1-.8.3-2.6.7-4 1-5.4 1-22.1 8.2-22.8 9.8-.2.5-.8.8-1.3.8-3.7 0-22.6 17.5-30.7 28.5-2.8 3.8-5.5 7.5-5.9 8-.5.6-1.7 2.8-2.8 5-1.1 2.2-2.2 4.2-2.6 4.5-1.8 1.6-11.8 27.2-13.4 34.4-.2 1.2-.9 3.9-1.5 6.1-1.6 6.1-1.7 6.6-2.5 12.5-.4 3-.9 5.9-1.2 6.3-.6 1-1.2 9.5-1.4 21.5-.1 5.1-.6 9.5-1.1 9.8-.5.3-.5 1.1 0 1.7.5.7 1.2 5.2 1.6 10.2.6 8.9 1.7 16.9 3.5 25.5.5 2.5.7 4.8.5 5.2-.3.5-.1.8.3.8.9 0 3.9 11.4 3.7 13.7-.1.7.2 1 .7.7.5-.3.9.2.9 1 0 .9 1.1 4 2.4 7.1 1.4 3 2.2 5.5 1.8 5.5-.4 0-.2.4.3.8.6.4 2.7 4.1 4.8 8.2 3.6 7.2 6.4 12.3 8 14.5.4.5 2.3 3 4.1 5.5 1.9 2.4 3.2 4.8 3 5.2-.3.5 0 .7.8.6.7-.2 1.2.5 1.2 1.4-.1 1 .2 1.6.6 1.3.4-.3 2.8 1.5 5.3 4 3.2 3.1 4.5 5 4.1 6.2-.5 1.5-.4 1.5.5.3 1-1.5 1-1.5 7.8 4.7.7.6 2.2 1.5 3.3 1.8 1.1.3 2 1.1 2 1.6s.7.9 1.5.9 1.5.3 1.5.8c0 .4 2.5 1.8 5.5 3.1s5.5 2.8 5.5 3.3.4.7.8.4c.5-.3 2 .1 3.5.9s2.7 1.2 2.7 1c0-.3 1.1 0 2.5.5s4.6 1.2 7.2 1.6c2.7.3 5.1 1.1 5.5 1.8.6.8.8.7.8-.2 0-.7.4-1 1-.7 1.3.8 13.6.9 18.8.1 3.5-.6 4.3-.4 3.7.6-.3.7-.1.6.7-.3 1.2-1.5 7.7-3.4 10.6-3.2.6 0 1.2-.2 1.2-.6 0-.6 6.8-3.5 8-3.4.3.1 1.8-.8 3.3-1.9 1.6-1.1 3.9-2.1 5.1-2.2 1.6-.1 2.2-.6 1.8-1.5-.4-1-.1-1.3 1.2-.8.9.4 1.5.3 1.2-.2-.6-.9 2.2-2.6 3.7-2.2.5.1.6-.3.3-.8-1-1.6 1.4-2.4 3.2-1 1.4 1.1 1.5 1.1.5 0-.8-1-.7-1.7.5-3.2.8-1 1.8-1.7 2.1-1.5.3.2 1.5-.6 2.6-1.7 1.2-1.1 1.4-1.7.5-1.3-.8.4-.6.1.5-.8 3.2-2.5 3.8-3.1 6.9-6.9 1.6-2.1 3.3-3.4 4-3 .6.3.8.3.4-.2-1-1 5.1-9.7 6.3-9 .5.4.6-.2.2-1.1-.5-1.4-.3-1.6 1.3-1 1.4.5 1.6.4.7-.4-.8-.9-.6-2 .9-4.6 1.1-1.9 2.3-3.2 2.7-3 .4.3.8-.5.8-1.7.1-1.2.7-2.3 1.3-2.5.5-.2.8-.7.5-1.2-.3-.5.2-1.6 1.1-2.4.8-.9 1.3-1.6 1-1.6-.4 0 .5-2.2 1.8-4.9 1.4-2.7 2.2-5.1 1.9-5.5-.4-.3-.1-.6.6-.6s1-.4.7-.8c-.3-.5.1-2 .9-3.5s1.1-2.7.8-2.7c-.3 0-.1-.6.4-1.3.6-.6 2-5.5 3.3-10.7 1.3-5.2 2.5-10.2 2.8-11 .3-.8.4-2.3.3-3.4-.2-1 .2-1.5.7-1.2.6.4.8-.2.5-1.4-.3-1.1-.2-2.8.2-3.7.5-1 .7-2.6.6-3.7-.2-1 .3-2.3 1.1-2.7.8-.5.8-.9.2-.9-.8 0-1-1.5-.6-4.3.3-2.3.6-8.7.6-14.2 0-5.6.5-10.3 1.1-10.7.7-.5.7-.8-.1-.8-.5 0-1.1-1.9-1.2-4.3-.2-6.3-.9-12.4-2.2-20.7-.7-4.1-1.3-8.5-1.5-9.8-.2-1.3-.8-2.9-1.4-3.6-.7-.9-.7-1.6.2-2.6.9-1 .9-1.1 0-.6-.8.4-1.3.2-1.4-.6-.2-3.8-4-15.7-7.4-23.3-5.8-12.9-7.3-15.6-13.2-24.6-14.8-22.6-34.7-38.3-56.4-44.8-3.5-1-7.1-1.9-7.9-2-2.6-.1-11.4-1.2-13.2-1.5-.9-.2-1.8-.3-2-.1zM563.8 96.4c-.1.2-3.5.6-7.4.9-11.1 1-26.1 6.3-36.5 12.9-8 5.1-9.7 6.5-17.9 14.8-9.2 9.1-15.8 17.8-21.1 27.5-1.8 3.3-3.7 6.3-4.3 6.7-.6.4-.7.8-.3.8.5 0 .2 1.2-.6 2.7-3.1 6-6.7 15.1-8.7 22.3-1.2 4.1-2.4 8.2-2.8 9-.6 1.5-.7 1.9-1.7 8-.3 1.9-.8 4.2-1.1 5-.4.8-.8 3.1-.9 5-.2 1.9-.6 5.3-1 7.5-.3 2.2-.7 9.4-.8 16.1-.2 6.6-.7 12.5-1 13.1-.4.7-.3 1.4.1 1.7.5.3 1 2.6 1.1 5.2 0 2.6.3 4.9.5 5.2.2.2 0 1.7-.4 3.3-.5 1.8-.5 2.7.1 2.4.5-.4.9-.3 1 .2 1.2 11.2 1.7 14.5 3.3 20.5.8 3.1 1.7 6.7 2 8 1.2 6 7.2 21.7 11.5 29.8 1.2 2.5 3.2 6.3 4.3 8.4 1.1 2.2 2.7 4.6 3.5 5.4.8.8 1.2 2.1.9 2.9-.3.8-.2 1.2.3.9.8-.5 4.8 4.5 4.2 5.2-.1.2 1 1.3 2.4 2.4 1.4 1.1 2.4 2.6 2.1 3.4-.3.8 0 1.1 1 .7 1.3-.5 1.9.8 1.4 3.2-.1.5.2.7.5.3.4-.4 3.7 2 7.4 5.4 3.6 3.3 8.3 7.1 10.4 8.4 2 1.4 3.7 2.9 3.7 3.5 0 .5.4.8.9.4.5-.3 1.7.2 2.5 1.1.9.8 1.6 1.2 1.6.9 0-.4 1.5.2 3.4 1.3 2.9 1.7 16.5 7.1 18.1 7.2h2.1c.9 0 1.2.5.8 1.2-.5.9-.2.9.9-.1.9-.7 1.7-1 1.7-.5 0 .9 2.8 1.2 13.6 1.3 7.7.2 13.4-.6 20.9-2.6 3.3-.8 6.8-1.6 7.7-1.6.9-.1 1.4-.5 1.2-.9-.3-.4.1-.8.9-.8s4-1.4 7.1-3c3.1-1.7 6.2-2.8 6.9-2.4.7.4.9.4.5-.1-.7-.7 1.4-3.5 2.7-3.5.7 0 8.3-6.1 12.9-10.2 1-1 2.3-1.5 2.7-1.2.5.3.6-.2.3-1-.7-1.9.7-2.1 2.6-.4 1.2 1.1 1.2 1 0-.5-1.2-1.6-1.2-2 0-2.7.8-.5 1.8-.6 2.4-.3.5.4.6.1.1-.6-.4-.7.1-2 1.3-3.1 1.5-1.4 2.2-1.6 3.3-.7 1.1 1 1.1.9 0-.5-1.1-1.5-.8-2.3 2.1-6 1.8-2.4 3.5-4.5 3.8-4.8 1-1 5.2-8.7 9.3-17 2.3-4.7 4.5-8.7 4.9-8.8.5-.2.5-.8.2-1.3-.3-.6.2-2 1.3-3.1 1-1.2 1.2-1.8.5-1.4-1 .6-1 .2 0-2.1.7-1.5 1.5-3 1.8-3.3.3-.3.6-1.6.8-3 .1-1.3.6-2.7 1-3 .4-.3.8-2.1 1-4 .2-1.9.7-3.9 1.2-4.4.5-.5.6-1.5.3-2.4-.4-.8-.2-1.3.3-1 .5.4.9-.8 1-2.5.1-1.8.5-5 .9-7.2s.8-5.2.7-6.7c0-1.5.3-2.6.7-2.4.6.4.7-1.5 1.2-16.4.1-4.1.7-8.1 1.3-8.9.8-1.1.8-1.3-.1-.7-.7.4-1.3.3-1.3-.1 0-.5.6-1.5 1.3-2.2.6-.8.7-1.1.1-.8-.7.4-1.2-1.3-1.3-5.1-.2-6.3-.8-12.9-1.6-18.2-.3-1.9-.6-4.2-.7-5 0-.8-.9-5.3-2-9.9-1.1-4.6-2-9.2-2.1-10.3-.1-1-.5-1.8-.9-1.8s-.8-.8-.8-1.8-1.1-4.6-2.4-8c-1.4-3.5-2.5-6.5-2.5-6.7 0-.3-1.2-3-2.6-6-1.4-3.1-2.5-6-2.5-6.5 0-.6-.4-1-1-1-.5 0-1-.7-1-1.4 0-2.9-14.1-22.5-21.7-30.4-10.8-11-19.7-17.1-34.3-23.5-6.2-2.8-14.3-4.8-21.5-5.3-3.8-.3-7.5-.7-8.2-.9-.6-.2-1.3-.2-1.5-.1zM439.6 239.8c-.3.5.1.9.9.9s1.2-.4.9-.9c-.3-.4-.7-.8-.9-.8-.2 0-.6.4-.9.8zM434.6 243.8c-.3.5.1.9.9.9s1.2-.4.9-.9c-.3-.4-.7-.8-.9-.8-.2 0-.6.4-.9.8zM431.6 272.7c-.6 1.4-.5 1.5.5.6.7-.7 1-1.5.7-1.8-.3-.3-.9.2-1.2 1.2zM109.7 311.6c-.2.2-2.1.6-4.3 1-8.8 1.3-24 7.9-30.7 13.3-4.4 3.5-13.4 13.1-16.2 17.2-1.7 2.4-3.2 4.6-3.5 4.9-1.4 1.4-8 16.1-9 20.2-.7 2.6-1.5 4.6-1.9 4.4-.3-.2-.6.6-.7 1.7 0 1.2-.4 3.8-.7 5.7-1.5 7.3-2.1 12.7-2.1 19.2-.1 3.8-.4 6.8-.8 6.8s-.3 1.2.1 2.7c.8 3.3.7 6.5-.4 8.3-.5.9-.4 1.1.3.6.8-.5 1.2.4 1.3 2.6 0 1.8.2 4 .4 4.8.4 2 1.6 8.1 2 10.5.3 1.6 1.4 5.8 3.9 14 .2.5.8 2.1 1.3 3.5.6 1.4.9 2.8.6 3.2-.2.5.1.8.8.8.7 0 1 .3.6.6-.3.3.3 2.2 1.3 4.2 1.1 1.9 1.7 3.9 1.4 4.4-.3.4-.1.8.3.8.5 0 2.2 2.6 3.8 5.7 1.6 3.2 3.5 6.4 4.2 7.1.7.7 1.3 1.9 1.3 2.7 0 .7.4 1.5.8 1.7.4.1 2.8 3 5.4 6.3 5.6 7.3 13.4 15.3 20.2 20.7 2.8 2.3 5 4.5 4.9 4.9-.2.5.3.6 1.1.3.7-.3 2 .1 2.7.8 1.3 1.2 15 8.2 15.7 7.9.1-.1 1.5.5 3.1 1.3 1.6.9 3.1 1.2 3.5.9.3-.4.6-.1.6.5 0 .7.3 1.1.8 1.1 2.8-.5 5.2.2 4.6 1.3-.5 1-.4 1 .5.2.8-.7 2.7-.8 5-.4 2.2.4 7.2.8 11.2.9 4 .1 7.7.5 8.2.8.6.4.7.1.2-.6-.5-.9-.1-1.2 1.1-1 1.1.1 3.1-.1 4.5-.5s3.2-.9 4-1c6.2-1.4 7.9-2 7.9-2.7 0-.5.7-.9 1.5-.9 2.1 0 8.5-3.2 8.5-4.2 0-.5.4-.7.9-.4.5.3 1.4-.1 2.1-.9.7-.8 1.6-1.2 2.1-.9.5.3.9.1.9-.4 0-.4 2.9-3.3 6.4-6.4 3.6-3.1 6.2-5.8 5.9-6.2-.4-.3-.2-.6.4-.6 1.1 0 10.2-12.9 12-17 .3-.8 1.7-3.9 2.9-6.8 1.3-2.9 2.4-5.9 2.4-6.7 0-.8.4-1.5.8-1.5s.8-.8.9-1.8c.1-.9.4-2.8.7-4.2.6-2.8 1.7-9 2-10.5.1-.6.6-1.6 1-2.4.7-1 .6-1.2-.4-.6-.9.6-1.1.4-.4-.6 1.4-2.3 2.1-22 .9-27.9-.3-1.4-.7-4.9-1-7.8-.2-2.9-.7-5.7-1-6.1-.2-.5-.7-2.6-1.1-4.7-.3-2.1-1.9-7.8-3.5-12.7-1.6-4.9-2.6-9.4-2.2-10 .3-.7.3-.9-.2-.5-.4.4-3-3.9-5.8-9.5s-5.7-10.8-6.4-11.5c-.7-.7-1.3-1.7-1.3-2.1 0-.4-1.1-2.1-2.5-3.7s-2.5-3.2-2.5-3.6c0-.4-1-1.8-2.2-3.1-1.3-1.3-4.1-4.4-6.4-6.8-18.1-19.6-41-30.7-64.7-31.3-5.3-.1-9.8-.1-10 0zM761.7 311.7c-.2.1-2.3.5-4.6.8-20 2.5-45 18.4-60.7 38.7-1.2 1.5-2.5 2.4-2.9 2-.3-.4-.6-.3-.4.3.4 1.9-1.4 5.2-5.3 9.6-1 1-1.7 2.2-1.7 2.5.1.3-1.1 2.9-2.7 5.7-1.6 2.9-2.9 5.4-3 5.7 0 .3-.6 1.7-1.2 3.2-.7 1.6-1.7 4-2.4 5.5-1.3 3.3-1.5 3.8-1.7 5.7 0 .8-.7 2.1-1.3 2.8-.7.7-1.4 2.7-1.5 4.5-.2 1.7-.8 4.4-1.4 6-1.1 2.7-2 8.2-2.3 13 0 1.3-.4 2.3-.8 2.3-.3 0-.4.9-.1 2 .3 1.1 0 2.6-.6 3.3-.6.8-.9 1.6-.6 1.9.3.3.7 6.1.9 12.9.2 6.8.6 13.7 1 15.4.3 1.6 1.1 5.7 1.7 9 .7 3.3 1.7 6.6 2.2 7.3.8 1 .7 1.6-.4 2.3-1 .6-1 .9-.1.9.7 0 1.7 1.2 2.4 2.7.6 1.6 1.9 4.7 2.9 7 1.1 2.4 1.9 4.7 1.9 5.3 0 .5.5 1 1 1 .6 0 1 .5 1 1.1 0 .6 1.6 3.3 3.5 5.9 1.9 2.6 3.1 5.1 2.7 5.5-.4.5-.2.6.4.2.5-.3 1.9.6 3 2.1 1 1.4 2.7 3.3 3.6 4.1.9.8 1.5 1.8 1.2 2.3-.3.4.2.8 1.1.8.9 0 3.7 1.7 6.3 3.8 4.4 3.6 14.9 9.2 17.3 9.2.7 0 .6.6-.2 1.7-1.3 1.5-1.2 1.5.9.2 1.5-.9 2.5-1.1 3-.4.4.6 2.1 1.2 3.7 1.3 1.7.1 3.1.6 3.3 1 .1.4 1.8.6 3.7.4 2.2-.3 3.5 0 3.5.7s.4 1 .9.6c.5-.3 4.9-.7 9.8-.9 7.6-.4 10.6-.8 15.8-2 5-1.3 7.2-2 8.2-2.8.7-.5 1.7-.7 2.3-.3.5.3 1 .2 1-.3 0-.6.7-1.3 1.6-1.6 1-.4 1.3-.2.9.7-.4.6-.1.5.7-.3.7-.9 3.1-2.4 5.3-3.4 2.2-1.1 4.2-2.2 4.5-2.5.3-.3 1.4-1.3 2.4-2.1 1.8-1.3 1.9-1.3 1.1 0-.4.8.3.4 1.7-1 1.3-1.4 3.7-3.4 5.3-4.5 4.5-3.2 20.4-19.5 19-19.5-.2 0 .6-1.1 1.8-2.4 3.1-3.4 3.9-4.5 6.6-9.6 1.3-2.5 2.9-5 3.6-5.5.7-.6 1.2-1.3 1.3-1.8.1-.6 1.1-3 4.3-10.2 2.4-5.5 5.9-15.8 5.9-17.5 0-1.1.4-2 .8-2 .5 0 .9-.6.9-1.3.2-2.3 1.4-9.2 2-10.7.3-.8.7-3.7 1-6.4.2-2.8.8-5.5 1.3-6.1.6-.7.5-1.6-.2-2.3-.9-.9-.9-1.2.1-1.2.7 0 .9-.5.6-1-.4-.6-.8-6.3-1-12.8-.1-6.4-.8-13.5-1.3-15.7-.6-2.2-1.1-4.9-1.1-6 .1-5.1-10.7-30.2-14.8-34.3-.7-.7-1.3-1.7-1.3-2.2 0-1.5-16-17-17.5-17-.8 0-1.5-.4-1.5-.9 0-1.2-15.6-9.1-17.9-9.1-1 0-2.1-.3-2.5-.7-.3-.4-1.2-.8-1.9-.9-.7-.1-3-.5-5.2-.9-4-.8-20.3-1.4-20.8-.8zM431.6 326.7c-.6 1.4-.5 1.5.5.6.7-.7 1-1.5.7-1.8-.3-.3-.9.2-1.2 1.2zM665.6 335.3c.3 1 .9 1.5 1.2 1.2.3-.3 0-1.1-.7-1.8-1-.9-1.1-.8-.5.6zM658.5 340c-.3.6.1.7.9.4 1.8-.7 2.1-1.4.7-1.4-.6 0-1.3.4-1.6 1zM665.6 344.2c.3.5 1 .6 1.5.3 1.3-.9 1.1-1.2-.6-1.2-.8 0-1.2.4-.9.9zM244 348c.8.5 2 1 2.5 1 .6 0 .3-.5-.5-1s-1.9-1-2.5-1c-.5 0-.3.5.5 1z"/><path d="M393.4 353.8c.4.3 1.4.7 2.2.8.9.1 1.3 0 1-.4-.4-.3-1.4-.7-2.2-.8-.9-.1-1.3 0-1 .4zM390.5 360c-.3.6.1.7.9.4 1.8-.7 2.1-1.4.7-1.4-.6 0-1.3.4-1.6 1zM251 363.4c0 .2.7.7 1.6 1 .8.3 1.2.2.9-.4-.6-1-2.5-1.4-2.5-.6zM617.3 372.9c0 1.1.5 1.8.9 1.5.4-.3.5-1.1.1-1.9-.7-2.1-1.2-1.9-1 .4zM642.5 372c-.3.6.1.7.9.4 1.8-.7 2.1-1.4.7-1.4-.6 0-1.3.4-1.6 1zM273.4 374.4c.1.8.5 1.8.8 2.2.4.3.5-.1.4-1-.1-.8-.5-1.8-.8-2.2-.4-.3-.5.1-.4 1zM612.9 376.3c.6.8.7 1.8.3 2.2-.4.5-.1.5.6.1 1-.6 1-1.1.1-2.2-.6-.8-1.4-1.4-1.6-1.4-.3 0 0 .6.6 1.3zM373.6 378.2c.3.5 1 .6 1.5.3 1.3-.9 1.1-1.2-.6-1.2-.8 0-1.2.4-.9.9zM513.4 377.8c.4.3 1.4.7 2.2.8.9.1 1.3 0 1-.4-.4-.3-1.4-.7-2.2-.8-.9-.1-1.3 0-1 .4zM267.6 380.2c.3.5 1 .6 1.5.3 1.3-.9 1.1-1.2-.6-1.2-.8 0-1.2.4-.9.9zM281.9 379.2c-.5 1.8-.6 3.8-.1 3.4.7-.8 1.2-3.6.6-3.6-.2 0-.4.1-.5.2zM369.4 380.4c.1.8.5 1.8.8 2.2.4.3.5-.1.4-1-.1-.8-.5-1.8-.8-2.2-.4-.3-.5.1-.4 1zM377.5 380.1c-.3.4.2.6 1 .5 2.1-.3 2.8-1.3 1-1.3-.9 0-1.8.4-2 .8zM491 379.4c0 .2.7.7 1.6 1 .8.3 1.2.2.9-.4-.6-1-2.5-1.4-2.5-.6zM525.5 380c.3.5.8 1 1.1 1 .2 0 .4-.5.4-1 0-.6-.5-1-1.1-1-.5 0-.7.4-.4 1zM285.5 382c.3.5.8 1 1.1 1 .2 0 .4-.5.4-1 0-.6-.5-1-1.1-1-.5 0-.7.4-.4 1zM361.5 382c.3.5.8 1 1.1 1 .2 0 .4-.5.4-1 0-.6-.5-1-1.1-1-.5 0-.7.4-.4 1zM601.3 381.7c.4.3.1 1.3-.6 2.2-1.1 1.4-1 1.4.5.2 1.6-1.2 1.6-3.1.1-3.1-.4 0-.3.3 0 .7zM604.6 382.2c.3.5 1 .6 1.5.3 1.3-.9 1.1-1.2-.6-1.2-.8 0-1.2.4-.9.9zM355.1 383.3c-.8 1-.7 1.4.2 1.4.8 0 1.4-.6 1.4-1.4 0-.7-.1-1.3-.2-1.3-.2 0-.8.6-1.4 1.3zM358.7 384.1c.7.7 1.5 1 1.8.7.3-.3-.2-.9-1.2-1.2-1.4-.6-1.5-.5-.6.5zM612.5 384c-.3.6.1.7.9.4 1.8-.7 2.1-1.4.7-1.4-.6 0-1.3.4-1.6 1zM281.3 386.5c0 .8.4 1.2.9.9.5-.3.6-1 .3-1.5-.9-1.3-1.2-1.1-1.2.6zM525.6 386.2c.3.4 1.1.5 1.9.1 2.1-.7 1.9-1.2-.4-1-1.1 0-1.8.5-1.5.9zM537.5 386c.3.5.8 1 1.1 1 .2 0 .4-.5.4-1 0-.6-.5-1-1.1-1-.5 0-.7.4-.4 1zM603.5 386c.3.5.8 1 1.1 1 .2 0 .4-.5.4-1 0-.6-.5-1-1.1-1-.5 0-.7.4-.4 1zM297 388.1c0 .5.5.7 1 .4.6-.3 1-.8 1-1.1 0-.2-.4-.4-1-.4-.5 0-1 .5-1 1.1zM593.3 388.9c0 1.1.5 1.8.9 1.5.4-.3.5-1.1.1-1.9-.7-2.1-1.2-1.9-1 .4zM288.5 390c-.3.6.1.7.9.4 1.8-.7 2.1-1.4.7-1.4-.6 0-1.3.4-1.6 1zM333.5 390c.3.5.8 1 1.1 1 .2 0 .4-.5.4-1 0-.6-.5-1-1.1-1-.5 0-.7.4-.4 1zM529.9 389.2c-.5 1.8-.6 3.8-.1 3.4.7-.8 1.2-3.6.6-3.6-.2 0-.4.1-.5.2zM537.5 390c-.3.5-.1 1 .4 1 .6 0 1.1-.5 1.1-1 0-.6-.2-1-.4-1-.3 0-.8.4-1.1 1zM589 390c0 .5.5 1 1.1 1 .5 0 .7-.5.4-1-.3-.6-.8-1-1.1-1-.2 0-.4.4-.4 1zM323.5 390.9c-.3.5-.2 1.2.3 1.5.5.3.9-.1.9-.9 0-1.7-.3-1.9-1.2-.6zM284.6 391.8c-.3.5.1.9.9.9s1.2-.4.9-.9c-.3-.4-.7-.8-.9-.8-.2 0-.6.4-.9.8zM301.4 392.4c.1.8.5 1.8.8 2.2.4.3.5-.1.4-1-.1-.8-.5-1.8-.8-2.2-.4-.3-.5.1-.4 1zM349.9 391.2c-.5 1.8-.6 3.8-.1 3.4.7-.8 1.2-3.6.6-3.6-.2 0-.4.1-.5.2zM358.7 392.1c.7.7 1.5 1 1.8.7.3-.3-.2-.9-1.2-1.2-1.4-.6-1.5-.5-.6.5zM291.5 394.1c-.3.4.2.6 1 .5 2.1-.3 2.8-1.3 1-1.3-.9 0-1.8.4-2 .8zM297.6 393.8c-.3.5.1.9.9.9s1.2-.4.9-.9c-.3-.4-.7-.8-.9-.8-.2 0-.6.4-.9.8zM307 393.5c0 .7 3 1.3 3.4.7.3-.4-.4-.9-1.5-.9-1-.1-1.9 0-1.9.2zM313.5 394c.3.5.8 1 1.1 1 .2 0 .4-.5.4-1 0-.6-.5-1-1.1-1-.5 0-.7.4-.4 1zM333 394.1c0 .5.5.7 1 .4.6-.3 1-.8 1-1.1 0-.2-.4-.4-1-.4-.5 0-1 .5-1 1.1zM533.6 394.2c.3.5 1 .6 1.5.3 1.3-.9 1.1-1.2-.6-1.2-.8 0-1.2.4-.9.9zM549 394c0 .5.5 1 1.1 1 .5 0 .7-.5.4-1-.3-.6-.8-1-1.1-1-.2 0-.4.4-.4 1zM553 394.1c0 .5.5.7 1 .4.6-.3 1-.8 1-1.1 0-.2-.4-.4-1-.4-.5 0-1 .5-1 1.1zM557 394c0 .5.5 1 1.1 1 .5 0 .7-.5.4-1-.3-.6-.8-1-1.1-1-.2 0-.4.4-.4 1zM561.5 394c-.3.5-.1 1 .4 1 .6 0 1.1-.5 1.1-1 0-.6-.2-1-.4-1-.3 0-.8.4-1.1 1zM565.5 394c.3.5.8 1 1.1 1 .2 0 .4-.5.4-1 0-.6-.5-1-1.1-1-.5 0-.7.4-.4 1zM573 394c0 .5.5 1 1.1 1 .5 0 .7-.5.4-1-.3-.6-.8-1-1.1-1-.2 0-.4.4-.4 1zM593.9 393.2c-.5 1.8-.6 3.8-.1 3.4.7-.8 1.2-3.6.6-3.6-.2 0-.4.1-.5.2zM343.9 394.2c-.5 1.8-.6 3.8-.1 3.4.7-.8 1.2-3.6.6-3.6-.2 0-.4.1-.5.2zM581 396c0 .5.5 1 1.1 1 .5 0 .7-.5.4-1-.3-.6-.8-1-1.1-1-.2 0-.4.4-.4 1zM301.6 397.9c-.3.4.4 1.7 1.7 2.7 2.2 1.9 2.2 1.9.4-.2-.9-1.1-1.4-2.4-1-2.7.3-.4.4-.7 0-.7-.3 0-.8.4-1.1.9zM308.6 397.8c-.3.5.1.9.9.9s1.2-.4.9-.9c-.3-.4-.7-.8-.9-.8-.2 0-.6.4-.9.8zM321.5 398c-.3.5-.1 1 .4 1 .6 0 1.1-.5 1.1-1 0-.6-.2-1-.4-1-.3 0-.8.4-1.1 1zM337.3 398.5c0 .8.4 1.2.9.9.5-.3.6-1 .3-1.5-.9-1.3-1.2-1.1-1.2.6zM433.7 397.6c-.1.1-3.7.4-8 .7-4.2.3-8.2.9-8.7 1.2-.6.3-1 0-1-.7 0-1-.2-1-.8-.1-.4.6-2.5 1.3-4.7 1.5-2.2.2-4.5.7-5 1-.6.3-2 .4-3.2.3-1.3-.1-2.3.1-2.3.5 0 .3-.8.6-1.7.7-3.1.1-18.7 4.5-21.5 5.9-1.6.8-2.8 1.2-2.8.9 0-.3-1.3.1-2.9.9-1.6.9-3.1 1.2-3.5.9-.3-.4-.6-.2-.6.4 0 .5-.6 1-1.2 1-1.3 0-5.6 1.8-17.8 7.6-3.6 1.7-7.2 3-8 2.8-.8-.2-1.2.1-.8.5.5.4-2.5 2.6-6.5 4.9-3.9 2.3-9.2 5.4-11.7 7-2.5 1.6-4.6 2.8-4.7 2.7-.2-.1-1.2.6-2.2 1.5-2.2 2-2.2 2-10.6 8.3-3.3 2.4-6.5 4.9-7.1 5.5-.6.5-3.6 3-6.5 5.5-10.1 8.4-31.8 30.7-40.9 42-1.9 2.4-4.1 4.9-4.8 5.7-.7.7-1.1 1.3-.8 1.3.3 0-.2.8-1.1 1.8-3.5 3.6-18 24.5-19.7 28.2-1.9 4.4-7.4 11.9-8.1 11.2-.5-.4-.5-.2-.2.4.4.7-1 4.3-3.1 8.1s-5.1 9.7-6.7 13.1c-1.5 3.3-3.3 5.8-3.8 5.5-.6-.3-.7-.1-.3.5.3.6-.7 3.9-2.3 7.4-1.6 3.5-3.8 9-5 12.3-1.2 3.3-2.4 6.7-2.8 7.5-.3.8-.7 2.2-.9 3-.2.8-.8 1.6-1.4 1.8-.5.2-.8.7-.5 1.2.3.5 0 2.1-.6 3.7-.6 1.5-1.2 3.5-1.5 4.3-2 8-4 14.6-4.7 14.8-.4.2-.5.8-.2 1.2.3.5-.1 2.6-.8 4.8-.8 2.1-1.2 4.9-1 6.1.1 1.1-.2 2.1-.8 2.1-.6 0-.9.7-.5 1.5.3.8.1 2.6-.4 4-.5 1.3-1 4-1.2 6-.1 1.9-.5 3.5-.8 3.5-.3 0-.5 2.3-.5 5s-.2 5-.5 5-.6 1.7-.6 3.8c-.6 16.4-1 20.2-1.9 20.2-.6 0-.6.3.1.8.6.4 1.1 2.7 1.1 5.2s.4 8.1.8 12.5c1.1 10.1 1.1 9.7 1.8 11.5.3.8 1.5 4.8 2.7 8.7 1.2 4 2.5 7.5 3 7.8.4.3 1.1 1.6 1.4 3 .3 1.3 1.7 4.1 3.1 6.1 1.4 2 2.2 4.1 1.8 4.8-.3.6-.3.8.2.4.7-.7 3.5 1.4 3.5 2.6 0 .3 1.6 2.2 3.5 4.2 1.9 1.9 3.5 4 3.5 4.5 0 .6.4.8.9.4.6-.3 1.3.1 1.8.8.4.8 1.8 2 3.1 2.6 1.4.7 2.1 1.8 1.8 2.6-.3.8 0 1.7.6 2.1.7.4.8.3.4-.4-.8-1.4 1.5-1.6 3-.3 1.5 1.4 12.4 7.2 12.4 6.6 0-.3.9-.1 2 .5s1.8 1.4 1.6 1.9c-.3.4.8.5 2.5.3 1.6-.2 2.9 0 2.9.5s1.3 1 3 1.1c1.6.1 4.1.7 5.5 1.2 1.5.6 3.8 1 5.3 1 2.2 0 2.4.2 1.2 1.1-1.2.9-1.1 1 .5.4 2.3-.8 2.4-.8 4.8-.6.9 0 1.7.9 1.8 1.8 0 1.5.2 1.5.7.3.8-1.8 3.2-2.5 3.2-.9 0 .8.4.8 1.4 0 .9-.7 1.7-.8 2-.2.3.5 1.6.7 2.8.3 1.6-.4 1.9-.2 1.3.9-.6 1.1-.5 1.2.6.2.7-.7 1.7-1.3 2.2-1.3.4 0 .5.6.1 1.3-.6.9-.4.9.7-.1.7-.6 2.2-1.2 3.3-1.2 1.7 0 1.8.2.6 1-.9.6-1 1-.3 1 .6 0 1.5-.4 1.8-1 .9-1.4 8.8-1.2 10.4.2 1.1 1 1.3 1 .7 0-.5-.8 0-1.2 1.4-1.2 1.2 0 1.9.4 1.5.9-.3.5 0 1.3.6 1.7.7.4.9.3.6-.2-.3-.6-.1-1.6.4-2.4.8-1.3 1-1.3 1.9 0 .5.8 1 1 1 .4 0-.7 1.5-1.1 3.8-.9 2 .1 4.3-.2 5-.8.8-.6 1.2-.6 1.2.2s.6.9 1.8.2c2.4-1.3 8.5-1.7 10.1-.7 1 .6 1.2.5.7-.2-.5-.8.1-1.2 1.6-1.1 1.3 0 3.7-.2 5.3-.6 1.7-.3 4.8-.8 7-1 2.2-.2 4-.4 4-.5 0-.9 5.1-.7 5.7.2.5 1 .8.8.8-.5 0-1.6 2.7-2.2 8.8-2 .6.1 1.2-.2 1.2-.6 0-.4 1.5-.9 3.3-.9 3.1-.2 7.2-.9 7.2-1.2 0-.2 4.2-.9 7.5-1.3 1.4-.1 3.1.2 3.8.7.7.5 1.5.6 1.9.2.3-.3.1-.6-.5-.6-.7 0-1.2-.5-1.2-1.1 0-.6.6-.9 1.3-.6.6.2 3.9-.1 7.2-.8 3.3-.7 7-1.1 8.2-1 1.2.1 2-.1 1.8-.6-.3-.4.3-.8 1.2-.7 1 0 3.8-.3 6.3-.7 2.5-.5 5.7-.8 7.3-.9 1.5-.1 2.7-.5 2.7-.9 0-.5 1.4-.6 3.1-.2 1.9.4 2.9.3 2.6-.2-.4-.5 0-1 .8-1s1.5.5 1.5 1c0 .6.5.5 1.3-.1.6-.6 4.6-1.3 8.7-1.6 4.1-.4 9-.8 10.8-1.1 2.4-.3 3.1-.1 2.5.8-.5.9-.3.9.8.1.8-.5 3-1.1 4.9-1.2 2.8-.2 3.2-.1 2 .9-1.2.9-1.1 1 .5.3 2.9-1.1 14.6-.5 24 1.2 1.7.3 4.6.8 6.5 1 1.9.2 4.4.6 5.5.8 10.5 1.6 11.4 1.9 10.8 3-.4.6 0 .5.9-.2 1.2-1 2.2-1.1 3.6-.3 1.1.6 2.2.7 2.6.4.3-.3.6-.2.6.3s1.5 1 3.3 1.1c1.7 0 4.8.4 6.7.8 4.5.8 7.6 1.4 12.2 2.1 2.4.4 3.5 1.1 3.1 1.8-.4.6.1.5 1-.3.9-.7 1.7-.9 1.7-.4s1.4.9 3 .8c2.4-.1 3 .2 2.5 1.3-.4 1.2-.3 1.2.9.3 1.6-1.4 6.1-.8 8.4 1.1.9.7 1.3.8.9.2-.4-.7.4-.9 2.3-.6 1.7.2 2.7.8 2.4 1.3-.3.5.5.5 1.8 0 1.5-.5 3.1-.5 4.1.1.9.5 2.2.6 2.7.3.6-.3 1-.2 1 .4 0 .6.7.7 1.7.4 1.2-.5 1.4-.3.8.8-.7 1.1-.5 1.1 1-.1 1.3-1 1.9-1.1 2.2-.4.2.7 1.3.9 2.5.7 1.1-.4 2.4 0 2.9.8.7 1.2.9 1.2.9-.1s.1-1.3 1 0c.7 1.1 1 1.1 1 .2 0-.7.4-1.1.9-.8 1 .6 8.6 1.6 14.6 1.9 2.2.1 4.5.6 5.2 1 .6.4 1.5.2 1.8-.3.5-.7 1.2-.5 2.1.7 1.3 1.7 1.4 1.7.7-.1-.5-1.5-.3-1.7.8-1.1.7.5 3.2.9 5.4 1 2.2 0 4.6.4 5.4.9.9.6 1.2.5.8-.1-.4-.6 2-1 6.6-1.1 7.7-.1 16.4-.8 21.2-1.7 1.7-.2 4.1-.7 5.5-.9 1.4-.3 2.5-.5 2.5-.6 0-.2 2.1-.6 6.3-1.3 1.8-.3 4-1.1 4.8-1.7.7-.7 1.4-.9 1.4-.6 0 .4.9.2 2.1-.4 1.1-.6 3-1.3 4.2-1.6 1.2-.2 2.3-.8 2.5-1.4.2-.5.8-1 1.3-1 .6 0 .8.4.4.9-.3.5 0 1.3.6 1.7.7.4.9.3.6-.2-.9-1.5.4-2.8 6.4-6.2 3-1.7 6.7-4.2 8.2-5.6 1.4-1.3 2.8-2.1 3.1-1.8.3.3.6-.2.6-1.1 0-.9.5-1.7 1.1-1.7 1.2 0 3.2-2.1 5.9-6 .8-1.2 2.4-3.3 3.5-4.6 1.2-1.3 3.4-5.1 5-8.4 1.7-3.3 3.4-6 3.8-6 .5 0 .5-.5.2-1-.4-.6-.1-1.7.5-2.5.7-.8.9-1.5.5-1.5s-.3-.6.3-1.3c1.1-1.4 2.7-7.4 3.1-11.5.1-.8.6-1 1.4-.6.9.6.9.5 0-.8-.7-.8-1-1.8-.7-2.1.6-.6 1.1-5.6 1.5-14.9.1-3.5.6-5.5 1.2-5.1.6.4.7.1.2-.7-.5-.8-1-4.6-1.2-8.4-.4-9.1-1.1-18.1-1.7-22.6-.3-1.9-.8-5.5-1.1-8-.3-2.5-1.1-6.5-1.6-9-1.7-7.3-2.1-9.3-2.2-12.7-.1-1.7-.4-3-.8-2.7-.6.3-1.2-1.5-2.4-7.6-.5-2.3-1.3-5.5-1.4-5.5-.1 0-8.5-24-10.4-29.5-.6-1.9-1.5-3.8-1.9-4.1-.5-.3-1-1.6-1.3-2.9-.2-1.2-1.8-4.9-3.5-8.1-1.7-3.3-2.7-5.9-2.4-5.9.4 0 0-.8-.8-1.8-2.1-2.4-5.9-10.2-5-10.2.4 0 .2-.4-.3-.8-2-1.3-5.5-8.3-4.9-9.4.4-.6.3-.8-.3-.5-1.2.8-4.6-5-3.9-6.8.3-.9 0-1.2-.8-.9-1.1.4-3.3-2.7-3.4-5 0-.5-.7-1.3-1.6-1.8-.9-.5-1.6-1.4-1.6-1.9 0-.6-2.5-4.4-5.5-8.4-3-4.1-5.5-7.7-5.5-8 0-.5-2.2-3.3-5.7-7.3-1.3-1.4-2.3-2.8-2.3-3.1 0-.3-1.6-2.4-3.5-4.5s-3.2-4.4-2.8-5c.3-.6.3-.8-.2-.4-.4.4-2.4-1.1-4.4-3.5-3.7-4.3-28.3-28.9-34.3-34.2-1.8-1.7-5.8-4.8-8.8-7-3-2.1-6.7-5.2-8.2-6.7-1.6-1.5-2.8-2.6-2.8-2.3 0 .3-3.9-2.1-8.7-5.3-4.9-3.2-12.3-7.8-16.5-10.2-4.2-2.4-7.4-4.8-7.1-5.3.3-.6.1-.7-.6-.3-.6.4-4.5-.9-8.6-2.9s-7.7-3.6-8-3.5c-.3 0-1.8-.6-3.4-1.4-1.6-.9-3.1-1.2-3.5-.9-.3.4-.6.1-.6-.6s-.4-1-.9-.6c-.5.3-1.6-.1-2.4-.9-.8-.8-1.7-1.3-2-1-.2.3-2.2-.2-4.3-1-5.3-2.1-22.5-6.5-27.7-7.2-2.3-.3-4.9-.8-5.7-1.1-3.6-1.4-43-3.8-44.3-2.7zM595.5 398.9c-.3.5-.2 1.2.3 1.5.5.3.9-.1.9-.9 0-1.7-.3-1.9-1.2-.6zM295.4 399.8c.4.3 1.4.7 2.2.8.9.1 1.3 0 1-.4-.4-.3-1.4-.7-2.2-.8-.9-.1-1.3 0-1 .4zM354.6 399.8c-.3.5.1.9.9.9s1.2-.4.9-.9c-.3-.4-.7-.8-.9-.8-.2 0-.6.4-.9.8zM546 400c-.9.6-1 1-.3 1 .6 0 1.5-.5 1.8-1 .8-1.2.4-1.2-1.5 0zM331.5 402c-.3.5-.1 1 .4 1 .6 0 1.1-.5 1.1-1 0-.6-.2-1-.4-1-.3 0-.8.4-1.1 1zM553.6 402.2c.3.5 1 .6 1.5.3 1.3-.9 1.1-1.2-.6-1.2-.8 0-1.2.4-.9.9zM569.6 401.8c-.3.4.4.9 1.5.9 2.3.2 2.5-.3.4-1-.8-.4-1.6-.3-1.9.1zM585 403.4c0 .2.7.7 1.6 1 .8.3 1.2.2.9-.4-.6-1-2.5-1.4-2.5-.6zM563.6 405.3c.3 1 .9 1.5 1.2 1.2.3-.3 0-1.1-.7-1.8-1-.9-1.1-.8-.5.6zM315.6 419.3c.3 1 .9 1.5 1.2 1.2.3-.3 0-1.1-.7-1.8-1-.9-1.1-.8-.5.6zM326.6 424.2c.3.5 1 .6 1.5.3 1.3-.9 1.1-1.2-.6-1.2-.8 0-1.2.4-.9.9zM319 426c0 .5.5 1 1 1 .6 0 1-.5 1-1 0-.6-.4-1-1-1-.5 0-1 .4-1 1zM43.5 447.9c-.3.5-.2 1.2.3 1.5.5.3.9-.1.9-.9 0-1.7-.3-1.9-1.2-.6zM55 475.5c0 .5.5 1.7 1 2.5s1 1 1 .5c0-.6-.5-1.7-1-2.5s-1-1.1-1-.5zM830 478c.8.5 2 1 2.5 1 .6 0 .3-.5-.5-1s-1.9-1-2.5-1c-.5 0-.3.5.5 1zM55.5 487.1c-.4.6-.5 1.2-.2 1.5.2.3.7-.2 1-1.1.7-1.7.1-2-.8-.4zM818 500c.8.5 2 1 2.5 1 .6 0 .3-.5-.5-1s-1.9-1-2.5-1c-.5 0-.3.5.5 1zM76.6 506.2c.3.5 1 .6 1.5.3 1.3-.9 1.1-1.2-.6-1.2-.8 0-1.2.4-.9.9zM809.5 508c.3.5.8 1 1.1 1 .2 0 .4-.5.4-1 0-.6-.5-1-1.1-1-.5 0-.7.4-.4 1zM805.5 512c.3.5.8 1 1.1 1 .2 0 .4-.5.4-1 0-.6-.5-1-1.1-1-.5 0-.7.4-.4 1zM799.5 514c-.3.5-.1 1 .4 1 .6 0 1.1-.5 1.1-1 0-.6-.2-1-.4-1-.3 0-.8.4-1.1 1zM675.5 516c.3.5.8 1 1.1 1 .2 0 .4-.5.4-1 0-.6-.5-1-1.1-1-.5 0-.7.4-.4 1zM795 515.4c0 .2.7.7 1.6 1 .8.3 1.2.2.9-.4-.6-1-2.5-1.4-2.5-.6zM89.4 517.8c.4.3 1.4.7 2.2.8.9.1 1.3 0 1-.4-.4-.3-1.4-.7-2.2-.8-.9-.1-1.3 0-1 .4zM95.6 520.2c.3.5 1 .6 1.5.3 1.3-.9 1.1-1.2-.6-1.2-.8 0-1.2.4-.9.9zM687 520.1c0 .5.5.7 1 .4.6-.3 1-.8 1-1.1 0-.2-.4-.4-1-.4-.5 0-1 .5-1 1.1zM183.6 522.7c-.6 1.4-.5 1.5.5.6.7-.7 1-1.5.7-1.8-.3-.3-.9.2-1.2 1.2zM791.6 522.7c-.6 1.4-.5 1.5.5.6.7-.7 1-1.5.7-1.8-.3-.3-.9.2-1.2 1.2zM93 524c0 .5.5 1 1.1 1 .5 0 .7-.5.4-1-.3-.6-.8-1-1.1-1-.2 0-.4.4-.4 1zM99.9 524.7c-1.3 1.6-1.2 1.7.4.4.9-.7 1.7-1.5 1.7-1.7 0-.8-.8-.3-2.1 1.3zM109.3 525.5c0 .8.4 1.2.9.9.5-.3.6-1 .3-1.5-.9-1.3-1.2-1.1-1.2.6zM177.5 524.9c-.3.5-.2 1.2.3 1.5.5.3.9-.1.9-.9 0-1.7-.3-1.9-1.2-.6zM703.4 525.8c.4.3 1.4.7 2.2.8.9.1 1.3 0 1-.4-.4-.3-1.4-.7-2.2-.8-.9-.1-1.3 0-1 .4zM713.6 525.8c-.3.4.4.9 1.5.9 2.3.2 2.5-.3.4-1-.8-.4-1.6-.3-1.9.1zM785 526.1c0 .5.5.7 1 .4.6-.3 1-.8 1-1.1 0-.2-.4-.4-1-.4-.5 0-1 .5-1 1.1zM779.5 526.9c-.3.5-.2 1.2.3 1.5.5.3.9-.1.9-.9 0-1.7-.3-1.9-1.2-.6zM790.9 527.7c-1.3 1.6-1.2 1.7.4.4.9-.7 1.7-1.5 1.7-1.7 0-.8-.8-.3-2.1 1.3zM165.3 529.5c0 .8.4 1.2.9.9.5-.3.6-1 .3-1.5-.9-1.3-1.2-1.1-1.2.6zM773.5 528.9c-.3.5-.2 1.2.3 1.5.5.3.9-.1.9-.9 0-1.7-.3-1.9-1.2-.6zM113 530.1c0 .5.5.7 1 .4.6-.3 1-.8 1-1.1 0-.2-.4-.4-1-.4-.5 0-1 .5-1 1.1zM117 530c0 .5.5 1 1.1 1 .5 0 .7-.5.4-1-.3-.6-.8-1-1.1-1-.2 0-.4.4-.4 1zM168.6 529.8c-.3.5.1.9.9.9s1.2-.4.9-.9c-.3-.4-.7-.8-.9-.8-.2 0-.6.4-.9.8zM708 530c-1.2.7-1 .9.7.7 1.2 0 1.9-.5 1.7-.9-.6-1-.6-1-2.4.2zM713.4 529.8c.4.3 1.4.7 2.2.8.9.1 1.3 0 1-.4-.4-.3-1.4-.7-2.2-.8-.9-.1-1.3 0-1 .4zM769.5 530c.3.5.8 1 1.1 1 .2 0 .4-.5.4-1 0-.6-.5-1-1.1-1-.5 0-.7.4-.4 1zM159.5 531.1c-.4.6-.5 1.2-.2 1.5.2.3.7-.2 1-1.1.7-1.7.1-2-.8-.4zM678.6 532.2c.3.5 1 .6 1.5.3 1.3-.9 1.1-1.2-.6-1.2-.8 0-1.2.4-.9.9zM734.6 531.8c-.3.5.1.9.9.9s1.2-.4.9-.9c-.3-.4-.7-.8-.9-.8-.2 0-.6.4-.9.8zM781 532c0 .5.5 1 1.1 1 .5 0 .7-.5.4-1-.3-.6-.8-1-1.1-1-.2 0-.4.4-.4 1zM721.4 534.4c.1.8.5 1.8.8 2.2.4.3.5-.1.4-1-.1-.8-.5-1.8-.8-2.2-.4-.3-.5.1-.4 1zM764 534c-1.2.7-1 .9.7.7 1.2 0 1.9-.5 1.7-.9-.6-1-.6-1-2.4.2zM769.5 534.1c-.3.4.2.6 1 .5 2.1-.3 2.8-1.3 1-1.3-.9 0-1.8.4-2 .8zM179.5 535.1c-.4.6-.5 1.2-.2 1.5.2.3.7-.2 1-1.1.7-1.7.1-2-.8-.4zM755.7 534.7c-1 .9-.9 2.3.1 2.3.5 0 .9-.7.9-1.5 0-1.7-.1-1.8-1-.8zM164.7 536.1c.7.7 1.5 1 1.8.7.3-.3-.2-.9-1.2-1.2-1.4-.6-1.5-.5-.6.5zM749.7 536.5c-.4.8-.3 1.6.1 1.9.4.3.9-.4.9-1.5.2-2.3-.3-2.5-1-.4zM775.6 535.8c-.3.5.1.9.9.9s1.2-.4.9-.9c-.3-.4-.7-.8-.9-.8-.2 0-.6.4-.9.8zM120.6 538.2c.3.5 1 .6 1.5.3 1.3-.9 1.1-1.2-.6-1.2-.8 0-1.2.4-.9.9zM155.4 537.8c.4.3 1.4.7 2.2.8.9.1 1.3 0 1-.4-.4-.3-1.4-.7-2.2-.8-.9-.1-1.3 0-1 .4zM725.6 538.2c.3.5 1 .6 1.5.3 1.3-.9 1.1-1.2-.6-1.2-.8 0-1.2.4-.9.9zM741 538.1c0 .5.5.7 1 .4.6-.3 1-.8 1-1.1 0-.2-.4-.4-1-.4-.5 0-1 .5-1 1.1zM125.9 539.2c-.5 1.8-.6 3.8-.1 3.4.7-.8 1.2-3.6.6-3.6-.2 0-.4.1-.5.2zM722 540c-.9.6-1 1-.3 1 .6 0 1.5-.5 1.8-1 .8-1.2.4-1.2-1.5 0zM774.7 540.1c.7.7 1.5 1 1.8.7.3-.3-.2-.9-1.2-1.2-1.4-.6-1.5-.5-.6.5zM131.4 541.8c.4.3 1.4.7 2.2.8.9.1 1.3 0 1-.4-.4-.3-1.4-.7-2.2-.8-.9-.1-1.3 0-1 .4zM137.6 541.8c-.3.5.1.9.9.9s1.2-.4.9-.9c-.3-.4-.7-.8-.9-.8-.2 0-.6.4-.9.8zM144.6 541.8c-.3.5.1.9.9.9s1.2-.4.9-.9c-.3-.4-.7-.8-.9-.8-.2 0-.6.4-.9.8zM153.5 541.9c-.3.5-.2 1.2.3 1.5.5.3.9-.1.9-.9 0-1.7-.3-1.9-1.2-.6zM751.5 542.1c-.3.4.2.6 1 .5 2.1-.3 2.8-1.3 1-1.3-.9 0-1.8.4-2 .8zM757.6 542.2c.3.4 1.1.5 1.9.1 2.1-.7 1.9-1.2-.4-1-1.1 0-1.8.5-1.5.9zM743.4 544c0 1.3.4 1.6 1 1 .7-.7.7-1.3 0-2-.6-.6-1-.3-1 1zM127.6 545.3c.3 1 .9 1.5 1.2 1.2.3-.3 0-1.1-.7-1.8-1-.9-1.1-.8-.5.6zM147 545.9c0 .6.4 1.3 1 1.6.6.3.7-.1.4-.9-.7-1.8-1.4-2.1-1.4-.7zM731.5 548c-.3.5-.1 1 .4 1 .6 0 1.1-.5 1.1-1 0-.6-.2-1-.4-1-.3 0-.8.4-1.1 1zM95.6 549.8c-.3.5.1.9.9.9s1.2-.4.9-.9c-.3-.4-.7-.8-.9-.8-.2 0-.6.4-.9.8zM128 552c-.9.6-1 1-.3 1 .6 0 1.5-.5 1.8-1 .8-1.2.4-1.2-1.5 0zM727.9 552.7c-1.3 1.6-1.2 1.7.4.4.9-.7 1.7-1.5 1.7-1.7 0-.8-.8-.3-2.1 1.3zM778.5 564c-.3.6.1.7.9.4 1.8-.7 2.1-1.4.7-1.4-.6 0-1.3.4-1.6 1zM718.9 567.7c-1.3 1.6-1.2 1.7.4.4 1.6-1.3 2.1-2.1 1.3-2.1-.2 0-1 .8-1.7 1.7zM711.6 748.7c-.6 1.4-.5 1.5.5.6.7-.7 1-1.5.7-1.8-.3-.3-.9.2-1.2 1.2zM182.7 764.1c.7.7 1.5 1 1.8.7.3-.3-.2-.9-1.2-1.2-1.4-.6-1.5-.5-.6.5z"/><path d="M411.6 775.8c-.3.5.1.9.9.9s1.2-.4.9-.9c-.3-.4-.7-.8-.9-.8-.2 0-.6.4-.9.8zM442.7 776.1c.7.7 1.5 1 1.8.7.3-.3-.2-.9-1.2-1.2-1.4-.6-1.5-.5-.6.5zM466 775.4c0 .2.8 1 1.8 1.7 1.5 1.3 1.6 1.2.3-.4s-2.1-2.1-2.1-1.3zM453.5 778c-.3.5-.1 1 .4 1 .6 0 1.1-.5 1.1-1 0-.6-.2-1-.4-1-.3 0-.8.4-1.1 1zM411.5 778.9c-.3.5-.2 1.2.3 1.5.5.3.9-.1.9-.9 0-1.7-.3-1.9-1.2-.6zM379 780c0 .5.5 1 1.1 1 .5 0 .7-.5.4-1-.3-.6-.8-1-1.1-1-.2 0-.4.4-.4 1zM383.9 780.7c-1.3 1.6-1.2 1.7.4.4 1.6-1.3 2.1-2.1 1.3-2.1-.2 0-1 .8-1.7 1.7zM388 780c-.9.6-1 1-.3 1 .6 0 1.5-.5 1.8-1 .8-1.2.4-1.2-1.5 0zM443.5 780c-.3.5-.1 1 .4 1 .6 0 1.1-.5 1.1-1 0-.6-.2-1-.4-1-.3 0-.8.4-1.1 1zM471.5 780c.3.5.8 1 1.1 1 .2 0 .4-.5.4-1 0-.6-.5-1-1.1-1-.5 0-.7.4-.4 1zM475 780.1c0 .5.5.7 1 .4.6-.3 1-.8 1-1.1 0-.2-.4-.4-1-.4-.5 0-1 .5-1 1.1zM453.3 781.5c0 .8.4 1.2.9.9.5-.3.6-1 .3-1.5-.9-1.3-1.2-1.1-1.2.6zM207.9 782.7c-1.2 1.6-1.2 1.7.2.6.9-.7 2-.9 2.4-.5.5.4.5.1.1-.6-.9-1.6-1.1-1.5-2.7.5zM213.5 782.1c-.3.4.2.6 1 .5 2.1-.3 2.8-1.3 1-1.3-.9 0-1.8.4-2 .8zM425 782c0 .5.5 1 1.1 1 .5 0 .7-.5.4-1-.3-.6-.8-1-1.1-1-.2 0-.4.4-.4 1zM428.6 782.2c.3.5 1 .6 1.5.3 1.3-.9 1.1-1.2-.6-1.2-.8 0-1.2.4-.9.9zM457 782.1c0 .5.5.7 1 .4.6-.3 1-.8 1-1.1 0-.2-.4-.4-1-.4-.5 0-1 .5-1 1.1zM489 782c0 .5.5 1 1.1 1 .5 0 .7-.5.4-1-.3-.6-.8-1-1.1-1-.2 0-.4.4-.4 1zM498.9 783.7c-1.3 1.6-1.2 1.7.4.4.9-.7 1.7-1.5 1.7-1.7 0-.8-.8-.3-2.1 1.3zM370.6 784.2c.3.5 1 .6 1.5.3 1.3-.9 1.1-1.2-.6-1.2-.8 0-1.2.4-.9.9zM410.6 783.8c-.3.5.1.9.9.9s1.5-.4 1.5-.9c0-.4-.4-.8-.9-.8-.6 0-1.2.4-1.5.8zM445.4 784.4c.1.8.5 1.8.8 2.2.4.3.5-.1.4-1-.1-.8-.5-1.8-.8-2.2-.4-.3-.5.1-.4 1zM495.5 783.9c-.3.5-.2 1.2.3 1.5.5.3.9-.1.9-.9 0-1.7-.3-1.9-1.2-.6zM433.5 784.9c-.3.5-.2 1.2.3 1.5.5.3.9-.1.9-.9 0-1.7-.3-1.9-1.2-.6zM381 786.1c0 .5.5.7 1 .4.6-.3 1-.8 1-1.1 0-.2-.4-.4-1-.4-.5 0-1 .5-1 1.1zM391 785.5c0 .7 3 1.3 3.4.7.3-.4-.4-.9-1.5-.9-1-.1-1.9 0-1.9.2zM401.4 786.4c.1.8.5 1.8.8 2.2.4.3.5-.1.4-1-.1-.8-.5-1.8-.8-2.2-.4-.3-.5.1-.4 1zM449.6 785.8c-.2.4-.1 1.4.4 2.2.7 1.1.9.9.7-.8-.1-2.4-.3-2.6-1.1-1.4zM469.4 785.8c.4.3 1.4.7 2.2.8.9.1 1.3 0 1-.4-.4-.3-1.4-.7-2.2-.8-.9-.1-1.3 0-1 .4zM481.6 786.2c.3.4 1.1.5 1.9.1 2.1-.7 1.9-1.2-.4-1-1.1 0-1.8.5-1.5.9zM505 786c0 .5.5 1 1.1 1 .5 0 .7-.5.4-1-.3-.6-.8-1-1.1-1-.2 0-.4.4-.4 1zM509.5 786c-.3.5-.1 1 .4 1 .6 0 1.1-.5 1.1-1 0-.6-.2-1-.4-1-.3 0-.8.4-1.1 1zM675.5 786c-.3.5-.1 1 .4 1 .6 0 1.1-.5 1.1-1 0-.6-.2-1-.4-1-.3 0-.8.4-1.1 1zM439.5 786.9c-.3.5-.2 1.2.3 1.5.5.3.9-.1.9-.9 0-1.7-.3-1.9-1.2-.6zM671.6 787.3c.3 1 .9 1.5 1.2 1.2.3-.3 0-1.1-.7-1.8-1-.9-1.1-.8-.5.6zM343 788.4c.7.7 1.3.7 2 0 .6-.6.3-1-1-1s-1.6.4-1 1zM428 788.5c-.7.9-1.1 1.7-.9 2 .3.2 1-.5 1.7-1.5 1.4-2.4 1-2.6-.8-.5zM493.4 788.4c.1.8.5 1.8.8 2.2.4.3.5-.1.4-1-.1-.8-.5-1.8-.8-2.2-.4-.3-.5.1-.4 1zM543 788.2c0 .4.4.8.9.8.6 0 1.2-.4 1.5-.8.3-.5-.1-.9-.9-.9s-1.5.4-1.5.9zM435.6 789.3c.3 1 .9 1.5 1.2 1.2.3-.3 0-1.1-.7-1.8-1-.9-1.1-.8-.5.6zM221 790.1c0 .5.5.7 1 .4.6-.3 1-.8 1-1.1 0-.2-.4-.4-1-.4-.5 0-1 .5-1 1.1zM225.5 790c.3.5.8 1 1.1 1 .2 0 .4-.5.4-1 0-.6-.5-1-1.1-1-.5 0-.7.4-.4 1zM233.5 790c.3.5.8 1 1.1 1 .2 0 .4-.5.4-1 0-.6-.5-1-1.1-1-.5 0-.7.4-.4 1zM237.5 790c.3.5.8 1 1.1 1 .2 0 .4-.5.4-1 0-.6-.5-1-1.1-1-.5 0-.7.4-.4 1zM321 790c0 .5.5 1 1.1 1 .5 0 .7-.5.4-1-.3-.6-.8-1-1.1-1-.2 0-.4.4-.4 1zM379.4 789.8c.4.3 1.4.7 2.2.8.9.1 1.3 0 1-.4-.4-.3-1.4-.7-2.2-.8-.9-.1-1.3 0-1 .4zM408.6 789.8c-.3.5.1.9.9.9s1.2-.4.9-.9c-.3-.4-.7-.8-.9-.8-.2 0-.6.4-.9.8zM413.6 790.2c.3.4 1.1.5 1.9.1 2.1-.7 1.9-1.2-.4-1-1.1 0-1.8.5-1.5.9zM475.5 790c.3.5.8 1 1.1 1 .2 0 .4-.5.4-1 0-.6-.5-1-1.1-1-.5 0-.7.4-.4 1zM496.6 790.2c.3.5 1 .6 1.5.3 1.3-.9 1.1-1.2-.6-1.2-.8 0-1.2.4-.9.9zM509.4 790.2c-.4.7-.4 1 .1.6.4-.4 1.5-.2 2.4.5 1.4 1.1 1.4 1 .2-.6-1.6-2-1.8-2.1-2.7-.5zM521 790c0 .5.5 1 1.1 1 .5 0 .7-.5.4-1-.3-.6-.8-1-1.1-1-.2 0-.4.4-.4 1zM529 790.1c0 .5.5.7 1 .4.6-.3 1-.8 1-1.1 0-.2-.4-.4-1-.4-.5 0-1 .5-1 1.1zM533 790.1c0 .5.5.7 1 .4.6-.3 1-.8 1-1.1 0-.2-.4-.4-1-.4-.5 0-1 .5-1 1.1zM657 790.1c0 .5.5.7 1 .4.6-.3 1-.8 1-1.1 0-.2-.4-.4-1-.4-.5 0-1 .5-1 1.1zM661.5 790c-.3.5-.1 1 .4 1 .6 0 1.1-.5 1.1-1 0-.6-.2-1-.4-1-.3 0-.8.4-1.1 1zM669.6 789.8c-.3.5.1.9.9.9s1.2-.4.9-.9c-.3-.4-.7-.8-.9-.8-.2 0-.6.4-.9.8zM339 791.9c0 .6.4 1.3 1 1.6.6.3.7-.1.4-.9-.7-1.8-1.4-2.1-1.4-.7zM365.4 792.4c.1.8.5 1.8.8 2.2.4.3.5-.1.4-1-.1-.8-.5-1.8-.8-2.2-.4-.3-.5.1-.4 1zM402.5 792c-.3.6.1.7.9.4 1.8-.7 2.1-1.4.7-1.4-.6 0-1.3.4-1.6 1zM543.3 792.5c0 .8.4 1.2.9.9.4-.3.8-.9.8-1.5 0-.5-.4-.9-.8-.9-.5 0-.9.7-.9 1.5zM648 792c-.9.6-1 1-.3 1 .6 0 1.5-.5 1.8-1 .8-1.2.4-1.2-1.5 0zM261 794c0 .5.5 1 1.1 1 .5 0 .7-.5.4-1-.3-.6-.8-1-1.1-1-.2 0-.4.4-.4 1zM321 794.1c0 .5.5.7 1 .4.6-.3 1-.8 1-1.1 0-.2-.4-.4-1-.4-.5 0-1 .5-1 1.1zM369.9 793.2c-.5 1.8-.6 3.8-.1 3.4.7-.8 1.2-3.6.6-3.6-.2 0-.4.1-.5.2zM515.5 794.1c-.3.4.2.6 1 .5 2.1-.3 2.8-1.3 1-1.3-.9 0-1.8.4-2 .8zM525 794.1c0 .5.5.7 1 .4.6-.3 1-.8 1-1.1 0-.2-.4-.4-1-.4-.5 0-1 .5-1 1.1zM529.4 794.4c.1.8.5 1.8.8 2.2.4.3.5-.1.4-1-.1-.8-.5-1.8-.8-2.2-.4-.3-.5.1-.4 1zM621 794.1c0 .5.5.7 1 .4.6-.3 1-.8 1-1.1 0-.2-.4-.4-1-.4-.5 0-1 .5-1 1.1zM625 794c0 .5.5 1 1.1 1 .5 0 .7-.5.4-1-.3-.6-.8-1-1.1-1-.2 0-.4.4-.4 1zM228 796.5c-.7.9-1.1 1.7-.9 2 .3.2 1-.5 1.7-1.5 1.4-2.4 1-2.6-.8-.5zM271 796.1c0 .5.5.7 1 .4.6-.3 1-.8 1-1.1 0-.2-.4-.4-1-.4-.5 0-1 .5-1 1.1zM279.6 796.2c.3.5 1 .6 1.5.3 1.3-.9 1.1-1.2-.6-1.2-.8 0-1.2.4-.9.9zM286 795.4c0 .2.8 1 1.8 1.7 1.5 1.3 1.6 1.2.3-.4s-2.1-2.1-2.1-1.3zM341.4 796.4c.1.8.5 1.8.8 2.2.4.3.5-.1.4-1-.1-.8-.5-1.8-.8-2.2-.4-.3-.5.1-.4 1zM349 796c0 .5.5 1 1.1 1 .5 0 .7-.5.4-1-.3-.6-.8-1-1.1-1-.2 0-.4.4-.4 1zM376 796.5c-.7.9-1.1 1.7-.9 2 .3.2 1-.5 1.7-1.5 1.4-2.4 1-2.6-.8-.5zM571 795.4c0 .2.7.7 1.6 1 .8.3 1.2.2.9-.4-.6-1-2.5-1.4-2.5-.6zM659.1 796.7c.7 1.2 1.5 2 1.8 1.7.3-.2-.3-1.2-1.3-2.2-1.7-1.6-1.8-1.6-.5.5zM321.5 796.9c-.3.5-.2 1.2.3 1.5.5.3.9-.1.9-.9 0-1.7-.3-1.9-1.2-.6zM231.6 798.2c.3.4 1.1.5 1.9.1 2.1-.7 1.9-1.2-.4-1-1.1 0-1.8.5-1.5.9zM243.5 798.1c-.3.4.2.6 1 .5 2.1-.3 2.8-1.3 1-1.3-.9 0-1.8.4-2 .8zM261 798.1c0 .5.5.7 1 .4.6-.3 1-.8 1-1.1 0-.2-.4-.4-1-.4-.5 0-1 .5-1 1.1zM355 797.5c0 .7 3 1.3 3.4.7.3-.4-.4-.9-1.5-.9-1-.1-1.9 0-1.9.2zM539.5 798.1c-.3.4.2.6 1 .5 2.1-.3 2.8-1.3 1-1.3-.9 0-1.8.4-2 .8zM549 798c0 .5.5 1 1.1 1 .5 0 .7-.5.4-1-.3-.6-.8-1-1.1-1-.2 0-.4.4-.4 1zM597 798.1c0 .5.5.7 1 .4.6-.3 1-.8 1-1.1 0-.2-.4-.4-1-.4-.5 0-1 .5-1 1.1zM621 798c0 .5.5 1 1.1 1 .5 0 .7-.5.4-1-.3-.6-.8-1-1.1-1-.2 0-.4.4-.4 1zM625 798.1c0 .5.5.7 1 .4.6-.3 1-.8 1-1.1 0-.2-.4-.4-1-.4-.5 0-1 .5-1 1.1zM633 798c0 .5.5 1 1.1 1 .5 0 .7-.5.4-1-.3-.6-.8-1-1.1-1-.2 0-.4.4-.4 1zM645.5 797.9c-.3.5-.2 1.2.3 1.5.5.3.9-.1.9-.9 0-1.7-.3-1.9-1.2-.6zM655 798.1c0 .5.5.7 1 .4.6-.3 1-.8 1-1.1 0-.2-.4-.4-1-.4-.5 0-1 .5-1 1.1zM239.9 800.7c-1.3 1.6-1.2 1.7.4.4 1.6-1.3 2.1-2.1 1.3-2.1-.2 0-1 .8-1.7 1.7zM275 800.1c0 .5.5.7 1 .4.6-.3 1-.8 1-1.1 0-.2-.4-.4-1-.4-.5 0-1 .5-1 1.1zM343.6 800.7c-.6 1.4-.5 1.5.5.6.7-.7 1-1.5.7-1.8-.3-.3-.9.2-1.2 1.2zM531.5 800c.3.5.8 1 1.1 1 .2 0 .4-.5.4-1 0-.6-.5-1-1.1-1-.5 0-.7.4-.4 1zM604 800c-.9.6-1 1-.3 1 .6 0 1.5-.5 1.8-1 .8-1.2.4-1.2-1.5 0zM297.5 800.9c-.3.5-.2 1.2.3 1.5.5.3.9-.1.9-.9 0-1.7-.3-1.9-1.2-.6zM311.4 801.8c.4.3 1.4.7 2.2.8.9.1 1.3 0 1-.4-.4-.3-1.4-.7-2.2-.8-.9-.1-1.3 0-1 .4zM321.3 802.5c0 .8.4 1.2.9.9.5-.3.6-1 .3-1.5-.9-1.3-1.2-1.1-1.2.6zM329.3 802.5c0 .8.4 1.2.9.9.5-.3.6-1 .3-1.5-.9-1.3-1.2-1.1-1.2.6zM551 802c0 .5.5 1 1.1 1 .5 0 .7-.5.4-1-.3-.6-.8-1-1.1-1-.2 0-.4.4-.4 1zM567.6 801.8c-.3.5.1.9.9.9s1.2-.4.9-.9c-.3-.4-.7-.8-.9-.8-.2 0-.6.4-.9.8zM589.4 802.4c.1.8.5 1.8.8 2.2.4.3.5-.1.4-1-.1-.8-.5-1.8-.8-2.2-.4-.3-.5.1-.4 1zM625 802.1c0 .5.5.7 1 .4.6-.3 1-.8 1-1.1 0-.2-.4-.4-1-.4-.5 0-1 .5-1 1.1zM303.3 803.5c0 .8.4 1.2.9.9.5-.3.6-1 .3-1.5-.9-1.3-1.2-1.1-1.2.6zM451.5 802.9c-.3.5-.2 1.2.3 1.5.5.3.9-.1.9-.9 0-1.7-.3-1.9-1.2-.6zM522.9 803.7c-1.3 1.6-1.2 1.7.4.4.9-.7 1.7-1.5 1.7-1.7 0-.8-.8-.3-2.1 1.3zM261 804c0 .5.5 1 1.1 1 .5 0 .7-.5.4-1-.3-.6-.8-1-1.1-1-.2 0-.4.4-.4 1zM281.9 803.2c-.5 1.8-.6 3.8-.1 3.4.7-.8 1.2-3.6.6-3.6-.2 0-.4.1-.5.2zM289.4 804.4c.1.8.5 1.8.8 2.2.4.3.5-.1.4-1-.1-.8-.5-1.8-.8-2.2-.4-.3-.5.1-.4 1zM317 804c0 .5.5 1 1.1 1 .5 0 .7-.5.4-1-.3-.6-.8-1-1.1-1-.2 0-.4.4-.4 1zM337.5 804c.3.5.8 1 1.1 1 .2 0 .4-.5.4-1 0-.6-.5-1-1.1-1-.5 0-.7.4-.4 1zM539.5 804c.3.5.8 1 1.1 1 .2 0 .4-.5.4-1 0-.6-.5-1-1.1-1-.5 0-.7.4-.4 1zM599 804.3c0 .2.6 1 1.4 1.6 1.1.9 1.6.9 2.2-.1.4-.7.4-1-.1-.6-.4.4-1.4.3-2.2-.3-.7-.6-1.3-.9-1.3-.6zM268.6 805.8c-.3.5.1.9.9.9s1.2-.4.9-.9c-.3-.4-.7-.8-.9-.8-.2 0-.6.4-.9.8zM275 806.1c0 .5.5.7 1 .4.6-.3 1-.8 1-1.1 0-.2-.4-.4-1-.4-.5 0-1 .5-1 1.1zM297.3 806.5c0 .8.4 1.2.9.9.5-.3.6-1 .3-1.5-.9-1.3-1.2-1.1-1.2.6zM576.6 805.8c-.3.5.1.9.9.9s1.2-.4.9-.9c-.3-.4-.7-.8-.9-.8-.2 0-.6.4-.9.8zM581.6 806.2c.3.5 1 .6 1.5.3 1.3-.9 1.1-1.2-.6-1.2-.8 0-1.2.4-.9.9zM591.9 806.7c-1.2 1.6-1.2 1.7.2.6.9-.7 2-.9 2.4-.5.5.4.5.1.1-.6-.9-1.6-1.1-1.5-2.7.5zM605.6 806.2c.3.5 1 .6 1.5.3 1.3-.9 1.1-1.2-.6-1.2-.8 0-1.2.4-.9.9zM611.5 806.1c-.3.4.2.6 1 .5 2.1-.3 2.8-1.3 1-1.3-.9 0-1.8.4-2 .8zM474.9 807.7c-1.3 1.6-1.2 1.7.4.4.9-.7 1.7-1.5 1.7-1.7 0-.8-.8-.3-2.1 1.3zM559.5 807.1c-.4.6-.5 1.2-.2 1.5.2.3.7-.2 1-1.1.7-1.7.1-2-.8-.4zM219.3 808.5c0 .8.4 1.2.9.9.5-.3.6-1 .3-1.5-.9-1.3-1.2-1.1-1.2.6zM287 808c0 .5.5 1 1.1 1 .5 0 .7-.5.4-1-.3-.6-.8-1-1.1-1-.2 0-.4.4-.4 1zM678 807.4c0 .2.8 1 1.8 1.7 1.5 1.3 1.6 1.2.3-.4s-2.1-2.1-2.1-1.3zM603 809.5c0 .5.5 1.7 1 2.5s1 1 1 .5c0-.6-.5-1.7-1-2.5s-1-1.1-1-.5zM575 811.4c0 .2.7.7 1.6 1 .8.3 1.2.2.9-.4-.6-1-2.5-1.4-2.5-.6zM654.6 818.2c.3.5 1 .6 1.5.3 1.3-.9 1.1-1.2-.6-1.2-.8 0-1.2.4-.9.9zM239.6 819.3c.3 1 .9 1.5 1.2 1.2.3-.3 0-1.1-.7-1.8-1-.9-1.1-.8-.5.6zM579.6 820.2c.3.5 1 .6 1.5.3 1.3-.9 1.1-1.2-.6-1.2-.8 0-1.2.4-.9.9zM329.5 824c.3.5.8 1 1.1 1 .2 0 .4-.5.4-1 0-.6-.5-1-1.1-1-.5 0-.7.4-.4 1zM270.6 825.8c-.3.5.1.9.9.9s1.5-.4 1.5-.9c0-.4-.4-.8-.9-.8-.6 0-1.2.4-1.5.8zM275.3 836.5c0 .8.4 1.2.9.9.5-.3.6-1 .3-1.5-.9-1.3-1.2-1.1-1.2.6z"/></svg>