<?xml version="1.0" standalone="no"?>
<!DOCTYPE svg PUBLIC "-//W3C//DTD SVG 20010904//EN"
 "http://www.w3.org/TR/2001/REC-SVG-20010904/DTD/svg10.dtd">
<svg version="1.0" xmlns="http://www.w3.org/2000/svg"
 width="888.000000pt" height="888.000000pt" viewBox="0 0 888.000000 888.000000"
 preserveAspectRatio="xMidYMid meet">
<metadata>
Created by potrace 1.14, written by Peter Selinger 2001-2017
</metadata>
<g transform="translate(0.000000,888.000000) scale(0.100000,-0.100000)"
fill="#000000" stroke="none">
<path d="M3228 7915 c-2 -1 -34 -5 -73 -8 -38 -3 -77 -8 -85 -11 -8 -3 -26 -7
-40 -10 -54 -10 -221 -82 -228 -98 -2 -5 -8 -8 -13 -8 -37 0 -226 -175 -307
-285 -28 -38 -55 -75 -59 -80 -5 -6 -17 -28 -28 -50 -11 -22 -22 -42 -26 -45
-18 -16 -118 -272 -134 -344 -2 -12 -9 -39 -15 -61 -16 -61 -17 -66 -25 -125
-4 -30 -9 -59 -12 -63 -6 -10 -12 -95 -14 -215 -1 -51 -6 -95 -11 -98 -5 -3
-5 -11 0 -17 5 -7 12 -52 16 -102 6 -89 17 -169 35 -255 5 -25 7 -48 5 -52 -3
-5 -1 -8 3 -8 9 0 39 -114 37 -137 -1 -7 2 -10 7 -7 5 3 9 -2 9 -10 0 -9 11
-40 24 -71 14 -30 22 -55 18 -55 -4 0 -2 -4 3 -8 6 -4 27 -41 48 -82 36 -72
64 -123 80 -145 4 -5 23 -30 41 -55 19 -24 32 -48 30 -52 -3 -5 0 -7 8 -6 7 2
12 -5 12 -14 -1 -10 2 -16 6 -13 4 3 28 -15 53 -40 32 -31 45 -50 41 -62 -5
-15 -4 -15 5 -3 10 15 10 15 78 -47 7 -6 22 -15 33 -18 11 -3 20 -11 20 -16 0
-5 7 -9 15 -9 8 0 15 -3 15 -8 0 -4 25 -18 55 -31 30 -13 55 -28 55 -33 0 -5
4 -7 8 -4 5 3 20 -1 35 -9 15 -8 27 -12 27 -10 0 3 11 0 25 -5 14 -5 46 -12
72 -16 27 -3 51 -11 55 -18 6 -8 8 -7 8 2 0 7 4 10 10 7 13 -8 136 -9 188 -1
35 6 43 4 37 -6 -3 -7 -1 -6 7 3 12 15 77 34 106 32 6 0 12 2 12 6 0 6 68 35
80 34 3 -1 18 8 33 19 16 11 39 21 51 22 16 1 22 6 18 15 -4 10 -1 13 12 8 9
-4 15 -3 12 2 -6 9 22 26 37 22 5 -1 6 3 3 8 -10 16 14 24 32 10 14 -11 15
-11 5 0 -8 10 -7 17 5 32 8 10 18 17 21 15 3 -2 15 6 26 17 12 11 14 17 5 13
-8 -4 -6 -1 5 8 32 25 38 31 69 69 16 21 33 34 40 30 6 -3 8 -3 4 2 -10 10 51
97 63 90 5 -4 6 2 2 11 -5 14 -3 16 13 10 14 -5 16 -4 7 4 -8 9 -6 20 9 46 11
19 23 32 27 30 4 -3 8 5 8 17 1 12 7 23 13 25 5 2 8 7 5 12 -3 5 2 16 11 24 8
9 13 16 10 16 -4 0 5 22 18 49 14 27 22 51 19 55 -4 3 -1 6 6 6 7 0 10 4 7 8
-3 5 1 20 9 35 8 15 11 27 8 27 -3 0 -1 6 4 13 6 6 20 55 33 107 13 52 25 102
28 110 3 8 4 23 3 34 -2 10 2 15 7 12 6 -4 8 2 5 14 -3 11 -2 28 2 37 5 10 7
26 6 37 -2 10 3 23 11 27 8 5 8 9 2 9 -8 0 -10 15 -6 43 3 23 6 87 6 142 0 56
5 103 11 107 7 5 7 8 -1 8 -5 0 -11 19 -12 43 -2 63 -9 124 -22 207 -7 41 -13
85 -15 98 -2 13 -8 29 -14 36 -7 9 -7 16 2 26 9 10 9 11 0 6 -8 -4 -13 -2 -14
6 -2 38 -40 157 -74 233 -58 129 -73 156 -132 246 -148 226 -347 383 -564 448
-35 10 -71 19 -79 20 -26 1 -114 12 -132 15 -9 2 -18 3 -20 1z"/>
<path d="M5638 7916 c-1 -2 -35 -6 -74 -9 -111 -10 -261 -63 -365 -129 -80
-51 -97 -65 -179 -148 -92 -91 -158 -178 -211 -275 -18 -33 -37 -63 -43 -67
-6 -4 -7 -8 -3 -8 5 0 2 -12 -6 -27 -31 -60 -67 -151 -87 -223 -12 -41 -24
-82 -28 -90 -6 -15 -7 -19 -17 -80 -3 -19 -8 -42 -11 -50 -4 -8 -8 -31 -9 -50
-2 -19 -6 -53 -10 -75 -3 -22 -7 -94 -8 -161 -2 -66 -7 -125 -10 -131 -4 -7
-3 -14 1 -17 5 -3 10 -26 11 -52 0 -26 3 -49 5 -52 2 -2 0 -17 -4 -33 -5 -18
-5 -27 1 -24 5 4 9 3 10 -2 12 -112 17 -145 33 -205 8 -31 17 -67 20 -80 12
-60 72 -217 115 -298 12 -25 32 -63 43 -84 11 -22 27 -46 35 -54 8 -8 12 -21
9 -29 -3 -8 -2 -12 3 -9 8 5 48 -45 42 -52 -1 -2 10 -13 24 -24 14 -11 24 -26
21 -34 -3 -8 0 -11 10 -7 13 5 19 -8 14 -32 -1 -5 2 -7 5 -3 4 4 37 -20 74
-54 36 -33 83 -71 104 -84 20 -14 37 -29 37 -35 0 -5 4 -8 9 -4 5 3 17 -2 25
-11 9 -8 16 -12 16 -9 0 4 15 -2 34 -13 29 -17 165 -71 181 -72 3 0 12 0 21 0
9 0 12 -5 8 -12 -5 -9 -2 -9 9 1 9 7 17 10 17 5 0 -9 28 -12 136 -13 77 -2
134 6 209 26 33 8 68 16 77 16 9 1 14 5 12 9 -3 4 1 8 9 8 8 0 40 14 71 30 31
17 62 28 69 24 7 -4 9 -4 5 1 -7 7 14 35 27 35 7 0 83 61 129 102 10 10 23 15
27 12 5 -3 6 2 3 10 -7 19 7 21 26 4 12 -11 12 -10 0 5 -12 16 -12 20 0 27 8
5 18 6 24 3 5 -4 6 -1 1 6 -4 7 1 20 13 31 15 14 22 16 33 7 11 -10 11 -9 0 5
-11 15 -8 23 21 60 18 24 35 45 38 48 10 10 52 87 93 170 23 47 45 87 49 88 5
2 5 8 2 13 -3 6 2 20 13 31 10 12 12 18 5 14 -10 -6 -10 -2 0 21 7 15 15 30
18 33 3 3 6 16 8 30 1 13 6 27 10 30 4 3 8 21 10 40 2 19 7 39 12 44 5 5 6 15
3 24 -4 8 -2 13 3 10 5 -4 9 8 10 25 1 18 5 50 9 72 4 22 8 52 7 67 0 15 3 26
7 24 6 -4 7 15 12 164 1 41 7 81 13 89 8 11 8 13 -1 7 -7 -4 -13 -3 -13 1 0 5
6 15 13 22 6 8 7 11 1 8 -7 -4 -12 13 -13 51 -2 63 -8 129 -16 182 -3 19 -6
42 -7 50 0 8 -9 53 -20 99 -11 46 -20 92 -21 103 -1 10 -5 18 -9 18 -4 0 -8 8
-8 18 0 10 -11 46 -24 80 -14 35 -25 65 -25 67 0 3 -12 30 -26 60 -14 31 -25
60 -25 65 0 6 -4 10 -10 10 -5 0 -10 7 -10 14 0 29 -141 225 -217 304 -108
110 -197 171 -343 235 -62 28 -143 48 -215 53 -38 3 -75 7 -82 9 -6 2 -13 2
-15 1z"/>
<path d="M4396 6482 c-3 -5 1 -9 9 -9 8 0 12 4 9 9 -3 4 -7 8 -9 8 -2 0 -6 -4
-9 -8z"/>
<path d="M4346 6442 c-3 -5 1 -9 9 -9 8 0 12 4 9 9 -3 4 -7 8 -9 8 -2 0 -6 -4
-9 -8z"/>
<path d="M4316 6153 c-6 -14 -5 -15 5 -6 7 7 10 15 7 18 -3 3 -9 -2 -12 -12z"/>
<path d="M1097 5764 c-2 -2 -21 -6 -43 -10 -88 -13 -240 -79 -307 -133 -44
-35 -134 -131 -162 -172 -17 -24 -32 -46 -35 -49 -14 -14 -80 -161 -90 -202
-7 -26 -15 -46 -19 -44 -3 2 -6 -6 -7 -17 0 -12 -4 -38 -7 -57 -15 -73 -21
-127 -21 -192 -1 -38 -4 -68 -8 -68 -4 0 -3 -12 1 -27 8 -33 7 -65 -4 -83 -5
-9 -4 -11 3 -6 8 5 12 -4 13 -26 0 -18 2 -40 4 -48 4 -20 16 -81 20 -105 3
-16 14 -58 39 -140 2 -5 8 -21 13 -35 6 -14 9 -28 6 -32 -2 -5 1 -8 8 -8 7 0
10 -3 6 -6 -3 -3 3 -22 13 -42 11 -19 17 -39 14 -44 -3 -4 -1 -8 3 -8 5 0 22
-26 38 -57 16 -32 35 -64 42 -71 7 -7 13 -19 13 -27 0 -7 4 -15 8 -17 4 -1 28
-30 54 -63 56 -73 134 -153 202 -207 28 -23 50 -45 49 -49 -2 -5 3 -6 11 -3 7
3 20 -1 27 -8 13 -12 150 -82 157 -79 1 1 15 -5 31 -13 16 -9 31 -12 35 -9 3
4 6 1 6 -5 0 -7 3 -11 8 -11 28 5 52 -2 46 -13 -5 -10 -4 -10 5 -2 8 7 27 8
50 4 22 -4 72 -8 112 -9 40 -1 77 -5 82 -8 6 -4 7 -1 2 6 -5 9 -1 12 11 10 11
-1 31 1 45 5 14 4 32 9 40 10 62 14 79 20 79 27 0 5 7 9 15 9 21 0 85 32 85
42 0 5 4 7 9 4 5 -3 14 1 21 9 7 8 16 12 21 9 5 -3 9 -1 9 4 0 4 29 33 64 64
36 31 62 58 59 62 -4 3 -2 6 4 6 11 0 102 129 120 170 3 8 17 39 29 68 13 29
24 59 24 67 0 8 4 15 8 15 4 0 8 8 9 18 1 9 4 28 7 42 6 28 17 90 20 105 1 6
6 16 10 24 7 10 6 12 -4 6 -9 -6 -11 -4 -4 6 14 23 21 220 9 279 -3 14 -7 49
-10 78 -2 29 -7 57 -10 61 -2 5 -7 26 -11 47 -3 21 -19 78 -35 127 -16 49 -26
94 -22 100 3 7 3 9 -2 5 -4 -4 -30 39 -58 95 -28 56 -57 108 -64 115 -7 7 -13
17 -13 21 0 4 -11 21 -25 37 -14 16 -25 32 -25 36 0 4 -10 18 -22 31 -13 13
-41 44 -64 68 -181 196 -410 307 -647 313 -53 1 -98 1 -100 0z"/>
<path d="M7617 5763 c-2 -1 -23 -5 -46 -8 -200 -25 -450 -184 -607 -387 -12
-15 -25 -24 -29 -20 -3 4 -6 3 -4 -3 4 -19 -14 -52 -53 -96 -10 -10 -17 -22
-17 -25 1 -3 -11 -29 -27 -57 -16 -29 -29 -54 -30 -57 0 -3 -6 -17 -12 -32 -7
-16 -17 -40 -24 -55 -13 -33 -15 -38 -17 -57 0 -8 -7 -21 -13 -28 -7 -7 -14
-27 -15 -45 -2 -17 -8 -44 -14 -60 -11 -27 -20 -82 -23 -130 0 -13 -4 -23 -8
-23 -3 0 -4 -9 -1 -20 3 -11 0 -26 -6 -33 -6 -8 -9 -16 -6 -19 3 -3 7 -61 9
-129 2 -68 6 -137 10 -154 3 -16 11 -57 17 -90 7 -33 17 -66 22 -73 8 -10 7
-16 -4 -23 -10 -6 -10 -9 -1 -9 7 0 17 -12 24 -27 6 -16 19 -47 29 -70 11 -24
19 -47 19 -53 0 -5 5 -10 10 -10 6 0 10 -5 10 -11 0 -6 16 -33 35 -59 19 -26
31 -51 27 -55 -4 -5 -2 -6 4 -2 5 3 19 -6 30 -21 10 -14 27 -33 36 -41 9 -8
15 -18 12 -23 -3 -4 2 -8 11 -8 9 0 37 -17 63 -38 44 -36 149 -92 173 -92 7 0
6 -6 -2 -17 -13 -15 -12 -15 9 -2 15 9 25 11 30 4 4 -6 21 -12 37 -13 17 -1
31 -6 33 -10 1 -4 18 -6 37 -4 22 3 35 0 35 -7 0 -7 4 -10 9 -6 5 3 49 7 98 9
76 4 106 8 158 20 50 13 72 20 82 28 7 5 17 7 23 3 5 -3 10 -2 10 3 0 6 7 13
16 16 10 4 13 2 9 -7 -4 -6 -1 -5 7 3 7 9 31 24 53 34 22 11 42 22 45 25 3 3
14 13 24 21 18 13 19 13 11 0 -4 -8 3 -4 17 10 13 14 37 34 53 45 45 32 204
195 190 195 -2 0 6 11 18 24 31 34 39 45 66 96 13 25 29 50 36 55 7 6 12 13
13 18 1 6 11 30 43 102 24 55 59 158 59 175 0 11 4 20 8 20 5 0 9 6 9 13 2 23
14 92 20 107 3 8 7 37 10 64 2 28 8 55 13 61 6 7 5 16 -2 23 -9 9 -9 12 1 12
7 0 9 5 6 10 -4 6 -8 63 -10 128 -1 64 -8 135 -13 157 -6 22 -11 49 -11 60 1
51 -107 302 -148 343 -7 7 -13 17 -13 22 0 15 -160 170 -175 170 -8 0 -15 4
-15 9 0 12 -156 91 -179 91 -10 0 -21 3 -25 7 -3 4 -12 8 -19 9 -7 1 -30 5
-52 9 -40 8 -203 14 -208 8z"/>
<path d="M4316 5613 c-6 -14 -5 -15 5 -6 7 7 10 15 7 18 -3 3 -9 -2 -12 -12z"/>
<path d="M6656 5527 c3 -10 9 -15 12 -12 3 3 0 11 -7 18 -10 9 -11 8 -5 -6z"/>
<path d="M6585 5480 c-3 -6 1 -7 9 -4 18 7 21 14 7 14 -6 0 -13 -4 -16 -10z"/>
<path d="M6656 5438 c3 -5 10 -6 15 -3 13 9 11 12 -6 12 -8 0 -12 -4 -9 -9z"/>
<path d="M2440 5400 c8 -5 20 -10 25 -10 6 0 3 5 -5 10 -8 5 -19 10 -25 10 -5
0 -3 -5 5 -10z"/>
<path d="M3934 5342 c4 -3 14 -7 22 -8 9 -1 13 0 10 4 -4 3 -14 7 -22 8 -9 1
-13 0 -10 -4z"/>
<path d="M3905 5280 c-3 -6 1 -7 9 -4 18 7 21 14 7 14 -6 0 -13 -4 -16 -10z"/>
<path d="M2510 5246 c0 -2 7 -7 16 -10 8 -3 12 -2 9 4 -6 10 -25 14 -25 6z"/>
<path d="M6173 5151 c0 -11 5 -18 9 -15 4 3 5 11 1 19 -7 21 -12 19 -10 -4z"/>
<path d="M6425 5160 c-3 -6 1 -7 9 -4 18 7 21 14 7 14 -6 0 -13 -4 -16 -10z"/>
<path d="M2734 5136 c1 -8 5 -18 8 -22 4 -3 5 1 4 10 -1 8 -5 18 -8 22 -4 3
-5 -1 -4 -10z"/>
<path d="M6129 5117 c6 -8 7 -18 3 -22 -4 -5 -1 -5 6 -1 10 6 10 11 1 22 -6 8
-14 14 -16 14 -3 0 0 -6 6 -13z"/>
<path d="M3736 5098 c3 -5 10 -6 15 -3 13 9 11 12 -6 12 -8 0 -12 -4 -9 -9z"/>
<path d="M5134 5102 c4 -3 14 -7 22 -8 9 -1 13 0 10 4 -4 3 -14 7 -22 8 -9 1
-13 0 -10 -4z"/>
<path d="M2676 5078 c3 -5 10 -6 15 -3 13 9 11 12 -6 12 -8 0 -12 -4 -9 -9z"/>
<path d="M2819 5088 c-5 -18 -6 -38 -1 -34 7 8 12 36 6 36 -2 0 -4 -1 -5 -2z"/>
<path d="M3694 5076 c1 -8 5 -18 8 -22 4 -3 5 1 4 10 -1 8 -5 18 -8 22 -4 3
-5 -1 -4 -10z"/>
<path d="M3775 5079 c-3 -4 2 -6 10 -5 21 3 28 13 10 13 -9 0 -18 -4 -20 -8z"/>
<path d="M4910 5086 c0 -2 7 -7 16 -10 8 -3 12 -2 9 4 -6 10 -25 14 -25 6z"/>
<path d="M5255 5080 c3 -5 8 -10 11 -10 2 0 4 5 4 10 0 6 -5 10 -11 10 -5 0
-7 -4 -4 -10z"/>
<path d="M2855 5060 c3 -5 8 -10 11 -10 2 0 4 5 4 10 0 6 -5 10 -11 10 -5 0
-7 -4 -4 -10z"/>
<path d="M3615 5060 c3 -5 8 -10 11 -10 2 0 4 5 4 10 0 6 -5 10 -11 10 -5 0
-7 -4 -4 -10z"/>
<path d="M6013 5063 c4 -3 1 -13 -6 -22 -11 -14 -10 -14 5 -2 16 12 16 31 1
31 -4 0 -3 -3 0 -7z"/>
<path d="M6046 5058 c3 -5 10 -6 15 -3 13 9 11 12 -6 12 -8 0 -12 -4 -9 -9z"/>
<path d="M3551 5047 c-8 -10 -7 -14 2 -14 8 0 14 6 14 14 0 7 -1 13 -2 13 -2
0 -8 -6 -14 -13z"/>
<path d="M3587 5039 c7 -7 15 -10 18 -7 3 3 -2 9 -12 12 -14 6 -15 5 -6 -5z"/>
<path d="M6125 5040 c-3 -6 1 -7 9 -4 18 7 21 14 7 14 -6 0 -13 -4 -16 -10z"/>
<path d="M2813 5015 c0 -8 4 -12 9 -9 5 3 6 10 3 15 -9 13 -12 11 -12 -6z"/>
<path d="M5256 5018 c3 -4 11 -5 19 -1 21 7 19 12 -4 10 -11 0 -18 -5 -15 -9z"/>
<path d="M5375 5020 c3 -5 8 -10 11 -10 2 0 4 5 4 10 0 6 -5 10 -11 10 -5 0
-7 -4 -4 -10z"/>
<path d="M6035 5020 c3 -5 8 -10 11 -10 2 0 4 5 4 10 0 6 -5 10 -11 10 -5 0
-7 -4 -4 -10z"/>
<path d="M2970 4999 c0 -5 5 -7 10 -4 6 3 10 8 10 11 0 2 -4 4 -10 4 -5 0 -10
-5 -10 -11z"/>
<path d="M5933 4991 c0 -11 5 -18 9 -15 4 3 5 11 1 19 -7 21 -12 19 -10 -4z"/>
<path d="M2885 4980 c-3 -6 1 -7 9 -4 18 7 21 14 7 14 -6 0 -13 -4 -16 -10z"/>
<path d="M3335 4980 c3 -5 8 -10 11 -10 2 0 4 5 4 10 0 6 -5 10 -11 10 -5 0
-7 -4 -4 -10z"/>
<path d="M5299 4988 c-5 -18 -6 -38 -1 -34 7 8 12 36 6 36 -2 0 -4 -1 -5 -2z"/>
<path d="M5375 4980 c-3 -5 -1 -10 4 -10 6 0 11 5 11 10 0 6 -2 10 -4 10 -3 0
-8 -4 -11 -10z"/>
<path d="M5890 4980 c0 -5 5 -10 11 -10 5 0 7 5 4 10 -3 6 -8 10 -11 10 -2 0
-4 -4 -4 -10z"/>
<path d="M3235 4971 c-3 -5 -2 -12 3 -15 5 -3 9 1 9 9 0 17 -3 19 -12 6z"/>
<path d="M2846 4962 c-3 -5 1 -9 9 -9 8 0 12 4 9 9 -3 4 -7 8 -9 8 -2 0 -6 -4
-9 -8z"/>
<path d="M3014 4956 c1 -8 5 -18 8 -22 4 -3 5 1 4 10 -1 8 -5 18 -8 22 -4 3
-5 -1 -4 -10z"/>
<path d="M3499 4968 c-5 -18 -6 -38 -1 -34 7 8 12 36 6 36 -2 0 -4 -1 -5 -2z"/>
<path d="M3587 4959 c7 -7 15 -10 18 -7 3 3 -2 9 -12 12 -14 6 -15 5 -6 -5z"/>
<path d="M2915 4939 c-3 -4 2 -6 10 -5 21 3 28 13 10 13 -9 0 -18 -4 -20 -8z"/>
<path d="M2976 4942 c-3 -5 1 -9 9 -9 8 0 12 4 9 9 -3 4 -7 8 -9 8 -2 0 -6 -4
-9 -8z"/>
<path d="M3070 4945 c0 -7 30 -13 34 -7 3 4 -4 9 -15 9 -10 1 -19 0 -19 -2z"/>
<path d="M3135 4940 c3 -5 8 -10 11 -10 2 0 4 5 4 10 0 6 -5 10 -11 10 -5 0
-7 -4 -4 -10z"/>
<path d="M3330 4939 c0 -5 5 -7 10 -4 6 3 10 8 10 11 0 2 -4 4 -10 4 -5 0 -10
-5 -10 -11z"/>
<path d="M5336 4938 c3 -5 10 -6 15 -3 13 9 11 12 -6 12 -8 0 -12 -4 -9 -9z"/>
<path d="M5490 4940 c0 -5 5 -10 11 -10 5 0 7 5 4 10 -3 6 -8 10 -11 10 -2 0
-4 -4 -4 -10z"/>
<path d="M5530 4939 c0 -5 5 -7 10 -4 6 3 10 8 10 11 0 2 -4 4 -10 4 -5 0 -10
-5 -10 -11z"/>
<path d="M5570 4940 c0 -5 5 -10 11 -10 5 0 7 5 4 10 -3 6 -8 10 -11 10 -2 0
-4 -4 -4 -10z"/>
<path d="M5615 4940 c-3 -5 -1 -10 4 -10 6 0 11 5 11 10 0 6 -2 10 -4 10 -3 0
-8 -4 -11 -10z"/>
<path d="M5655 4940 c3 -5 8 -10 11 -10 2 0 4 5 4 10 0 6 -5 10 -11 10 -5 0
-7 -4 -4 -10z"/>
<path d="M5730 4940 c0 -5 5 -10 11 -10 5 0 7 5 4 10 -3 6 -8 10 -11 10 -2 0
-4 -4 -4 -10z"/>
<path d="M5939 4948 c-5 -18 -6 -38 -1 -34 7 8 12 36 6 36 -2 0 -4 -1 -5 -2z"/>
<path d="M3439 4938 c-5 -18 -6 -38 -1 -34 7 8 12 36 6 36 -2 0 -4 -1 -5 -2z"/>
<path d="M5810 4920 c0 -5 5 -10 11 -10 5 0 7 5 4 10 -3 6 -8 10 -11 10 -2 0
-4 -4 -4 -10z"/>
<path d="M3016 4901 c-3 -4 4 -17 17 -27 22 -19 22 -19 4 2 -9 11 -14 24 -10
27 3 4 4 7 0 7 -3 0 -8 -4 -11 -9z"/>
<path d="M3086 4902 c-3 -5 1 -9 9 -9 8 0 12 4 9 9 -3 4 -7 8 -9 8 -2 0 -6 -4
-9 -8z"/>
<path d="M3215 4900 c-3 -5 -1 -10 4 -10 6 0 11 5 11 10 0 6 -2 10 -4 10 -3 0
-8 -4 -11 -10z"/>
<path d="M3373 4895 c0 -8 4 -12 9 -9 5 3 6 10 3 15 -9 13 -12 11 -12 -6z"/>
<path d="M4337 4904 c-1 -1 -37 -4 -80 -7 -42 -3 -82 -9 -87 -12 -6 -3 -10 0
-10 7 0 10 -2 10 -8 1 -4 -6 -25 -13 -47 -15 -22 -2 -45 -7 -50 -10 -6 -3 -20
-4 -32 -3 -13 1 -23 -1 -23 -5 0 -3 -8 -6 -17 -7 -31 -1 -187 -45 -215 -59
-16 -8 -28 -12 -28 -9 0 3 -13 -1 -29 -9 -16 -9 -31 -12 -35 -9 -3 4 -6 2 -6
-4 0 -5 -6 -10 -12 -10 -13 0 -56 -18 -178 -76 -36 -17 -72 -30 -80 -28 -8 2
-12 -1 -8 -5 5 -4 -25 -26 -65 -49 -39 -23 -92 -54 -117 -70 -25 -16 -46 -28
-47 -27 -2 1 -12 -6 -22 -15 -22 -20 -22 -20 -106 -83 -33 -24 -65 -49 -71
-55 -6 -5 -36 -30 -65 -55 -101 -84 -318 -307 -409 -420 -19 -24 -41 -49 -48
-57 -7 -7 -11 -13 -8 -13 3 0 -2 -8 -11 -18 -35 -36 -180 -245 -197 -282 -19
-44 -74 -119 -81 -112 -5 4 -5 2 -2 -4 4 -7 -10 -43 -31 -81 -21 -38 -51 -97
-67 -131 -15 -33 -33 -58 -38 -55 -6 3 -7 1 -3 -5 3 -6 -7 -39 -23 -74 -16
-35 -38 -90 -50 -123 -12 -33 -24 -67 -28 -75 -3 -8 -7 -22 -9 -30 -2 -8 -8
-16 -14 -18 -5 -2 -8 -7 -5 -12 3 -5 0 -21 -6 -37 -6 -15 -12 -35 -15 -43 -20
-80 -40 -146 -47 -148 -4 -2 -5 -8 -2 -12 3 -5 -1 -26 -8 -48 -8 -21 -12 -49
-10 -61 1 -11 -2 -21 -8 -21 -6 0 -9 -7 -5 -15 3 -8 1 -26 -4 -40 -5 -13 -10
-40 -12 -60 -1 -19 -5 -35 -8 -35 -3 0 -5 -23 -5 -50 0 -27 -2 -50 -5 -50 -3
0 -6 -17 -6 -38 -6 -164 -10 -202 -19 -202 -6 0 -6 -3 1 -8 6 -4 11 -27 11
-52 0 -25 4 -81 8 -125 11 -101 11 -97 18 -115 3 -8 15 -48 27 -87 12 -40 25
-75 30 -78 4 -3 11 -16 14 -30 3 -13 17 -41 31 -61 14 -20 22 -41 18 -48 -3
-6 -3 -8 2 -4 7 7 35 -14 35 -26 0 -3 16 -22 35 -42 19 -19 35 -40 35 -45 0
-6 4 -8 9 -4 6 3 13 -1 18 -8 4 -8 18 -20 31 -26 14 -7 21 -18 18 -26 -3 -8 0
-17 6 -21 7 -4 8 -3 4 4 -8 14 15 16 30 3 15 -14 124 -72 124 -66 0 3 9 1 20
-5 11 -6 18 -14 16 -19 -3 -4 8 -5 25 -3 16 2 29 0 29 -5 0 -5 13 -10 30 -11
16 -1 41 -7 55 -12 15 -6 38 -10 53 -10 22 0 24 -2 12 -11 -12 -9 -11 -10 5
-4 23 8 24 8 48 6 9 0 17 -9 18 -18 0 -15 2 -15 7 -3 8 18 32 25 32 9 0 -8 4
-8 14 0 9 7 17 8 20 2 3 -5 16 -7 28 -3 16 4 19 2 13 -9 -6 -11 -5 -12 6 -2 7
7 17 13 22 13 4 0 5 -6 1 -13 -6 -9 -4 -9 7 1 7 6 22 12 33 12 17 0 18 -2 6
-10 -9 -6 -10 -10 -3 -10 6 0 15 4 18 10 9 14 88 12 104 -2 11 -10 13 -10 7 0
-5 8 0 12 14 12 12 0 19 -4 15 -9 -3 -5 0 -13 6 -17 7 -4 9 -3 6 2 -3 6 -1 16
4 24 8 13 10 13 19 0 5 -8 10 -10 10 -4 0 7 15 11 38 9 20 -1 43 2 50 8 8 6
12 6 12 -2 0 -8 6 -9 18 -2 24 13 85 17 101 7 10 -6 12 -5 7 2 -5 8 1 12 16
11 13 0 37 2 53 6 17 3 48 8 70 10 22 2 40 4 40 5 0 9 51 7 57 -2 5 -10 8 -8
8 5 0 16 27 22 88 20 6 -1 12 2 12 6 0 4 15 9 33 9 31 2 72 9 72 12 0 2 42 9
75 13 14 1 31 -2 38 -7 7 -5 15 -6 19 -2 3 3 1 6 -5 6 -7 0 -12 5 -12 11 0 6
6 9 13 6 6 -2 39 1 72 8 33 7 70 11 82 10 12 -1 20 1 18 6 -3 4 3 8 12 7 10 0
38 3 63 7 25 5 57 8 73 9 15 1 27 5 27 9 0 5 14 6 31 2 19 -4 29 -3 26 2 -4 5
0 10 8 10 8 0 15 -5 15 -10 0 -6 5 -5 13 1 6 6 46 13 87 16 41 4 90 8 108 11
24 3 31 1 25 -8 -5 -9 -3 -9 8 -1 8 5 30 11 49 12 28 2 32 1 20 -9 -12 -9 -11
-10 5 -3 29 11 146 5 240 -12 17 -3 46 -8 65 -10 19 -2 44 -6 55 -8 105 -16
114 -19 108 -30 -4 -6 0 -5 9 2 12 10 22 11 36 3 11 -6 22 -7 26 -4 3 3 6 2 6
-3 0 -5 15 -10 33 -11 17 0 48 -4 67 -8 45 -8 76 -14 122 -21 24 -4 35 -11 31
-18 -4 -6 1 -5 10 3 9 7 17 9 17 4 0 -5 14 -9 30 -8 24 1 30 -2 25 -13 -4 -12
-3 -12 9 -3 16 14 61 8 84 -11 9 -7 13 -8 9 -2 -4 7 4 9 23 6 17 -2 27 -8 24
-13 -3 -5 5 -5 18 0 15 5 31 5 41 -1 9 -5 22 -6 27 -3 6 3 10 2 10 -4 0 -6 7
-7 17 -4 12 5 14 3 8 -8 -7 -11 -5 -11 10 1 13 10 19 11 22 4 2 -7 13 -9 25
-7 11 4 24 0 29 -8 7 -12 9 -12 9 1 0 13 1 13 10 0 7 -11 10 -11 10 -2 0 7 4
11 9 8 10 -6 86 -16 146 -19 22 -1 45 -6 52 -10 6 -4 15 -2 18 3 5 7 12 5 21
-7 13 -17 14 -17 7 1 -5 15 -3 17 8 11 7 -5 32 -9 54 -10 22 0 46 -4 54 -9 9
-6 12 -5 8 1 -4 6 20 10 66 11 77 1 164 8 212 17 17 2 41 7 55 9 14 3 25 5 25
6 0 2 21 6 63 13 18 3 40 11 48 17 7 7 14 9 14 6 0 -4 9 -2 21 4 11 6 30 13
42 16 12 2 23 8 25 14 2 5 8 10 13 10 6 0 8 -4 4 -9 -3 -5 0 -13 6 -17 7 -4 9
-3 6 2 -9 15 4 28 64 62 30 17 67 42 82 56 14 13 28 21 31 18 3 -3 6 2 6 11 0
9 5 17 11 17 12 0 32 21 59 60 8 12 24 33 35 46 12 13 34 51 50 84 17 33 34
60 38 60 5 0 5 5 2 10 -4 6 -1 17 5 25 7 8 9 15 5 15 -4 0 -3 6 3 13 11 14 27
74 31 115 1 8 6 10 14 6 9 -6 9 -5 0 8 -7 8 -10 18 -7 21 6 6 11 56 15 149 1
35 6 55 12 51 6 -4 7 -1 2 7 -5 8 -10 46 -12 84 -4 91 -11 181 -17 226 -3 19
-8 55 -11 80 -3 25 -11 65 -16 90 -17 73 -21 93 -22 127 -1 17 -4 30 -8 27 -6
-3 -12 15 -24 76 -5 23 -13 55 -14 55 -1 0 -85 240 -104 295 -6 19 -15 38 -19
41 -5 3 -10 16 -13 29 -2 12 -18 49 -35 81 -17 33 -27 59 -24 59 4 0 0 8 -8
18 -21 24 -59 102 -50 102 4 0 2 4 -3 8 -20 13 -55 83 -49 94 4 6 3 8 -3 5
-12 -8 -46 50 -39 68 3 9 0 12 -8 9 -11 -4 -33 27 -34 50 0 5 -7 13 -16 18 -9
5 -16 14 -16 19 0 6 -25 44 -55 84 -30 41 -55 77 -55 80 0 5 -22 33 -57 73
-13 14 -23 28 -23 31 0 3 -16 24 -35 45 -19 21 -32 44 -28 50 3 6 3 8 -2 4 -4
-4 -24 11 -44 35 -37 43 -283 289 -343 342 -18 17 -58 48 -88 70 -30 21 -67
52 -82 67 -16 15 -28 26 -28 23 0 -3 -39 21 -87 53 -49 32 -123 78 -165 102
-42 24 -74 48 -71 53 3 6 1 7 -6 3 -6 -4 -45 9 -86 29 -41 20 -77 36 -80 35
-3 0 -18 6 -34 14 -16 9 -31 12 -35 9 -3 -4 -6 -1 -6 6 0 7 -4 10 -9 6 -5 -3
-16 1 -24 9 -8 8 -17 13 -20 10 -2 -3 -22 2 -43 10 -53 21 -225 65 -277 72
-23 3 -49 8 -57 11 -36 14 -430 38 -443 27z"/>
<path d="M5955 4891 c-3 -5 -2 -12 3 -15 5 -3 9 1 9 9 0 17 -3 19 -12 6z"/>
<path d="M2954 4882 c4 -3 14 -7 22 -8 9 -1 13 0 10 4 -4 3 -14 7 -22 8 -9 1
-13 0 -10 -4z"/>
<path d="M3546 4882 c-3 -5 1 -9 9 -9 8 0 12 4 9 9 -3 4 -7 8 -9 8 -2 0 -6 -4
-9 -8z"/>
<path d="M5460 4880 c-9 -6 -10 -10 -3 -10 6 0 15 5 18 10 8 12 4 12 -15 0z"/>
<path d="M3315 4860 c-3 -5 -1 -10 4 -10 6 0 11 5 11 10 0 6 -2 10 -4 10 -3 0
-8 -4 -11 -10z"/>
<path d="M5536 4858 c3 -5 10 -6 15 -3 13 9 11 12 -6 12 -8 0 -12 -4 -9 -9z"/>
<path d="M5696 4862 c-3 -4 4 -9 15 -9 23 -2 25 3 4 10 -8 4 -16 3 -19 -1z"/>
<path d="M5850 4846 c0 -2 7 -7 16 -10 8 -3 12 -2 9 4 -6 10 -25 14 -25 6z"/>
<path d="M5636 4827 c3 -10 9 -15 12 -12 3 3 0 11 -7 18 -10 9 -11 8 -5 -6z"/>
<path d="M3156 4687 c3 -10 9 -15 12 -12 3 3 0 11 -7 18 -10 9 -11 8 -5 -6z"/>
<path d="M3266 4638 c3 -5 10 -6 15 -3 13 9 11 12 -6 12 -8 0 -12 -4 -9 -9z"/>
<path d="M3190 4620 c0 -5 5 -10 10 -10 6 0 10 5 10 10 0 6 -4 10 -10 10 -5 0
-10 -4 -10 -10z"/>
<path d="M435 4401 c-3 -5 -2 -12 3 -15 5 -3 9 1 9 9 0 17 -3 19 -12 6z"/>
<path d="M550 4125 c0 -5 5 -17 10 -25 5 -8 10 -10 10 -5 0 6 -5 17 -10 25 -5
8 -10 11 -10 5z"/>
<path d="M8300 4100 c8 -5 20 -10 25 -10 6 0 3 5 -5 10 -8 5 -19 10 -25 10 -5
0 -3 -5 5 -10z"/>
<path d="M555 4009 c-4 -6 -5 -12 -2 -15 2 -3 7 2 10 11 7 17 1 20 -8 4z"/>
<path d="M8180 3880 c8 -5 20 -10 25 -10 6 0 3 5 -5 10 -8 5 -19 10 -25 10 -5
0 -3 -5 5 -10z"/>
<path d="M766 3818 c3 -5 10 -6 15 -3 13 9 11 12 -6 12 -8 0 -12 -4 -9 -9z"/>
<path d="M8095 3800 c3 -5 8 -10 11 -10 2 0 4 5 4 10 0 6 -5 10 -11 10 -5 0
-7 -4 -4 -10z"/>
<path d="M8055 3760 c3 -5 8 -10 11 -10 2 0 4 5 4 10 0 6 -5 10 -11 10 -5 0
-7 -4 -4 -10z"/>
<path d="M7995 3740 c-3 -5 -1 -10 4 -10 6 0 11 5 11 10 0 6 -2 10 -4 10 -3 0
-8 -4 -11 -10z"/>
<path d="M6755 3720 c3 -5 8 -10 11 -10 2 0 4 5 4 10 0 6 -5 10 -11 10 -5 0
-7 -4 -4 -10z"/>
<path d="M7950 3726 c0 -2 7 -7 16 -10 8 -3 12 -2 9 4 -6 10 -25 14 -25 6z"/>
<path d="M894 3702 c4 -3 14 -7 22 -8 9 -1 13 0 10 4 -4 3 -14 7 -22 8 -9 1
-13 0 -10 -4z"/>
<path d="M956 3678 c3 -5 10 -6 15 -3 13 9 11 12 -6 12 -8 0 -12 -4 -9 -9z"/>
<path d="M6870 3679 c0 -5 5 -7 10 -4 6 3 10 8 10 11 0 2 -4 4 -10 4 -5 0 -10
-5 -10 -11z"/>
<path d="M1836 3653 c-6 -14 -5 -15 5 -6 7 7 10 15 7 18 -3 3 -9 -2 -12 -12z"/>
<path d="M7916 3653 c-6 -14 -5 -15 5 -6 7 7 10 15 7 18 -3 3 -9 -2 -12 -12z"/>
<path d="M930 3640 c0 -5 5 -10 11 -10 5 0 7 5 4 10 -3 6 -8 10 -11 10 -2 0
-4 -4 -4 -10z"/>
<path d="M999 3633 c-13 -16 -12 -17 4 -4 9 7 17 15 17 17 0 8 -8 3 -21 -13z"/>
<path d="M1093 3625 c0 -8 4 -12 9 -9 5 3 6 10 3 15 -9 13 -12 11 -12 -6z"/>
<path d="M1775 3631 c-3 -5 -2 -12 3 -15 5 -3 9 1 9 9 0 17 -3 19 -12 6z"/>
<path d="M7034 3622 c4 -3 14 -7 22 -8 9 -1 13 0 10 4 -4 3 -14 7 -22 8 -9 1
-13 0 -10 -4z"/>
<path d="M7136 3622 c-3 -4 4 -9 15 -9 23 -2 25 3 4 10 -8 4 -16 3 -19 -1z"/>
<path d="M7850 3619 c0 -5 5 -7 10 -4 6 3 10 8 10 11 0 2 -4 4 -10 4 -5 0 -10
-5 -10 -11z"/>
<path d="M7795 3611 c-3 -5 -2 -12 3 -15 5 -3 9 1 9 9 0 17 -3 19 -12 6z"/>
<path d="M7909 3603 c-13 -16 -12 -17 4 -4 9 7 17 15 17 17 0 8 -8 3 -21 -13z"/>
<path d="M1653 3585 c0 -8 4 -12 9 -9 5 3 6 10 3 15 -9 13 -12 11 -12 -6z"/>
<path d="M7735 3591 c-3 -5 -2 -12 3 -15 5 -3 9 1 9 9 0 17 -3 19 -12 6z"/>
<path d="M1130 3579 c0 -5 5 -7 10 -4 6 3 10 8 10 11 0 2 -4 4 -10 4 -5 0 -10
-5 -10 -11z"/>
<path d="M1170 3580 c0 -5 5 -10 11 -10 5 0 7 5 4 10 -3 6 -8 10 -11 10 -2 0
-4 -4 -4 -10z"/>
<path d="M1686 3582 c-3 -5 1 -9 9 -9 8 0 12 4 9 9 -3 4 -7 8 -9 8 -2 0 -6 -4
-9 -8z"/>
<path d="M7080 3580 c-12 -7 -10 -9 7 -7 12 0 19 5 17 9 -6 10 -6 10 -24 -2z"/>
<path d="M7134 3582 c4 -3 14 -7 22 -8 9 -1 13 0 10 4 -4 3 -14 7 -22 8 -9 1
-13 0 -10 -4z"/>
<path d="M7695 3580 c3 -5 8 -10 11 -10 2 0 4 5 4 10 0 6 -5 10 -11 10 -5 0
-7 -4 -4 -10z"/>
<path d="M1595 3569 c-4 -6 -5 -12 -2 -15 2 -3 7 2 10 11 7 17 1 20 -8 4z"/>
<path d="M6786 3558 c3 -5 10 -6 15 -3 13 9 11 12 -6 12 -8 0 -12 -4 -9 -9z"/>
<path d="M7346 3562 c-3 -5 1 -9 9 -9 8 0 12 4 9 9 -3 4 -7 8 -9 8 -2 0 -6 -4
-9 -8z"/>
<path d="M7810 3560 c0 -5 5 -10 11 -10 5 0 7 5 4 10 -3 6 -8 10 -11 10 -2 0
-4 -4 -4 -10z"/>
<path d="M7214 3536 c1 -8 5 -18 8 -22 4 -3 5 1 4 10 -1 8 -5 18 -8 22 -4 3
-5 -1 -4 -10z"/>
<path d="M7640 3540 c-12 -7 -10 -9 7 -7 12 0 19 5 17 9 -6 10 -6 10 -24 -2z"/>
<path d="M7695 3539 c-3 -4 2 -6 10 -5 21 3 28 13 10 13 -9 0 -18 -4 -20 -8z"/>
<path d="M1795 3529 c-4 -6 -5 -12 -2 -15 2 -3 7 2 10 11 7 17 1 20 -8 4z"/>
<path d="M7557 3533 c-10 -9 -9 -23 1 -23 5 0 9 7 9 15 0 17 -1 18 -10 8z"/>
<path d="M1647 3519 c7 -7 15 -10 18 -7 3 3 -2 9 -12 12 -14 6 -15 5 -6 -5z"/>
<path d="M7497 3515 c-4 -8 -3 -16 1 -19 4 -3 9 4 9 15 2 23 -3 25 -10 4z"/>
<path d="M7756 3522 c-3 -5 1 -9 9 -9 8 0 12 4 9 9 -3 4 -7 8 -9 8 -2 0 -6 -4
-9 -8z"/>
<path d="M1206 3498 c3 -5 10 -6 15 -3 13 9 11 12 -6 12 -8 0 -12 -4 -9 -9z"/>
<path d="M1554 3502 c4 -3 14 -7 22 -8 9 -1 13 0 10 4 -4 3 -14 7 -22 8 -9 1
-13 0 -10 -4z"/>
<path d="M7256 3498 c3 -5 10 -6 15 -3 13 9 11 12 -6 12 -8 0 -12 -4 -9 -9z"/>
<path d="M7410 3499 c0 -5 5 -7 10 -4 6 3 10 8 10 11 0 2 -4 4 -10 4 -5 0 -10
-5 -10 -11z"/>
<path d="M1259 3488 c-5 -18 -6 -38 -1 -34 7 8 12 36 6 36 -2 0 -4 -1 -5 -2z"/>
<path d="M7220 3480 c-9 -6 -10 -10 -3 -10 6 0 15 5 18 10 8 12 4 12 -15 0z"/>
<path d="M7747 3479 c7 -7 15 -10 18 -7 3 3 -2 9 -12 12 -14 6 -15 5 -6 -5z"/>
<path d="M1314 3462 c4 -3 14 -7 22 -8 9 -1 13 0 10 4 -4 3 -14 7 -22 8 -9 1
-13 0 -10 -4z"/>
<path d="M1376 3462 c-3 -5 1 -9 9 -9 8 0 12 4 9 9 -3 4 -7 8 -9 8 -2 0 -6 -4
-9 -8z"/>
<path d="M1446 3462 c-3 -5 1 -9 9 -9 8 0 12 4 9 9 -3 4 -7 8 -9 8 -2 0 -6 -4
-9 -8z"/>
<path d="M1535 3461 c-3 -5 -2 -12 3 -15 5 -3 9 1 9 9 0 17 -3 19 -12 6z"/>
<path d="M7515 3459 c-3 -4 2 -6 10 -5 21 3 28 13 10 13 -9 0 -18 -4 -20 -8z"/>
<path d="M7576 3458 c3 -4 11 -5 19 -1 21 7 19 12 -4 10 -11 0 -18 -5 -15 -9z"/>
<path d="M7434 3440 c0 -13 4 -16 10 -10 7 7 7 13 0 20 -6 6 -10 3 -10 -10z"/>
<path d="M1276 3427 c3 -10 9 -15 12 -12 3 3 0 11 -7 18 -10 9 -11 8 -5 -6z"/>
<path d="M1470 3421 c0 -6 4 -13 10 -16 6 -3 7 1 4 9 -7 18 -14 21 -14 7z"/>
<path d="M7315 3400 c-3 -5 -1 -10 4 -10 6 0 11 5 11 10 0 6 -2 10 -4 10 -3 0
-8 -4 -11 -10z"/>
<path d="M956 3382 c-3 -5 1 -9 9 -9 8 0 12 4 9 9 -3 4 -7 8 -9 8 -2 0 -6 -4
-9 -8z"/>
<path d="M1280 3360 c-9 -6 -10 -10 -3 -10 6 0 15 5 18 10 8 12 4 12 -15 0z"/>
<path d="M7279 3353 c-13 -16 -12 -17 4 -4 9 7 17 15 17 17 0 8 -8 3 -21 -13z"/>
<path d="M7785 3240 c-3 -6 1 -7 9 -4 18 7 21 14 7 14 -6 0 -13 -4 -16 -10z"/>
<path d="M7189 3203 c-13 -16 -12 -17 4 -4 16 13 21 21 13 21 -2 0 -10 -8 -17
-17z"/>
<path d="M7116 1393 c-6 -14 -5 -15 5 -6 7 7 10 15 7 18 -3 3 -9 -2 -12 -12z"/>
<path d="M1827 1239 c7 -7 15 -10 18 -7 3 3 -2 9 -12 12 -14 6 -15 5 -6 -5z"/>
<path d="M4116 1122 c-3 -5 1 -9 9 -9 8 0 12 4 9 9 -3 4 -7 8 -9 8 -2 0 -6 -4
-9 -8z"/>
<path d="M4427 1119 c7 -7 15 -10 18 -7 3 3 -2 9 -12 12 -14 6 -15 5 -6 -5z"/>
<path d="M4660 1126 c0 -2 8 -10 18 -17 15 -13 16 -12 3 4 -13 16 -21 21 -21
13z"/>
<path d="M4535 1100 c-3 -5 -1 -10 4 -10 6 0 11 5 11 10 0 6 -2 10 -4 10 -3 0
-8 -4 -11 -10z"/>
<path d="M4115 1091 c-3 -5 -2 -12 3 -15 5 -3 9 1 9 9 0 17 -3 19 -12 6z"/>
<path d="M3790 1080 c0 -5 5 -10 11 -10 5 0 7 5 4 10 -3 6 -8 10 -11 10 -2 0
-4 -4 -4 -10z"/>
<path d="M3839 1073 c-13 -16 -12 -17 4 -4 16 13 21 21 13 21 -2 0 -10 -8 -17
-17z"/>
<path d="M3880 1080 c-9 -6 -10 -10 -3 -10 6 0 15 5 18 10 8 12 4 12 -15 0z"/>
<path d="M4435 1080 c-3 -5 -1 -10 4 -10 6 0 11 5 11 10 0 6 -2 10 -4 10 -3 0
-8 -4 -11 -10z"/>
<path d="M4715 1080 c3 -5 8 -10 11 -10 2 0 4 5 4 10 0 6 -5 10 -11 10 -5 0
-7 -4 -4 -10z"/>
<path d="M4750 1079 c0 -5 5 -7 10 -4 6 3 10 8 10 11 0 2 -4 4 -10 4 -5 0 -10
-5 -10 -11z"/>
<path d="M4533 1065 c0 -8 4 -12 9 -9 5 3 6 10 3 15 -9 13 -12 11 -12 -6z"/>
<path d="M2079 1053 c-12 -16 -12 -17 2 -6 9 7 20 9 24 5 5 -4 5 -1 1 6 -9 16
-11 15 -27 -5z"/>
<path d="M2135 1059 c-3 -4 2 -6 10 -5 21 3 28 13 10 13 -9 0 -18 -4 -20 -8z"/>
<path d="M4250 1060 c0 -5 5 -10 11 -10 5 0 7 5 4 10 -3 6 -8 10 -11 10 -2 0
-4 -4 -4 -10z"/>
<path d="M4286 1058 c3 -5 10 -6 15 -3 13 9 11 12 -6 12 -8 0 -12 -4 -9 -9z"/>
<path d="M4570 1059 c0 -5 5 -7 10 -4 6 3 10 8 10 11 0 2 -4 4 -10 4 -5 0 -10
-5 -10 -11z"/>
<path d="M4890 1060 c0 -5 5 -10 11 -10 5 0 7 5 4 10 -3 6 -8 10 -11 10 -2 0
-4 -4 -4 -10z"/>
<path d="M4989 1043 c-13 -16 -12 -17 4 -4 9 7 17 15 17 17 0 8 -8 3 -21 -13z"/>
<path d="M3706 1038 c3 -5 10 -6 15 -3 13 9 11 12 -6 12 -8 0 -12 -4 -9 -9z"/>
<path d="M4106 1042 c-3 -5 1 -9 9 -9 8 0 15 4 15 9 0 4 -4 8 -9 8 -6 0 -12
-4 -15 -8z"/>
<path d="M4454 1036 c1 -8 5 -18 8 -22 4 -3 5 1 4 10 -1 8 -5 18 -8 22 -4 3
-5 -1 -4 -10z"/>
<path d="M4955 1041 c-3 -5 -2 -12 3 -15 5 -3 9 1 9 9 0 17 -3 19 -12 6z"/>
<path d="M4335 1031 c-3 -5 -2 -12 3 -15 5 -3 9 1 9 9 0 17 -3 19 -12 6z"/>
<path d="M3810 1019 c0 -5 5 -7 10 -4 6 3 10 8 10 11 0 2 -4 4 -10 4 -5 0 -10
-5 -10 -11z"/>
<path d="M3910 1025 c0 -7 30 -13 34 -7 3 4 -4 9 -15 9 -10 1 -19 0 -19 -2z"/>
<path d="M4014 1016 c1 -8 5 -18 8 -22 4 -3 5 1 4 10 -1 8 -5 18 -8 22 -4 3
-5 -1 -4 -10z"/>
<path d="M4496 1022 c-2 -4 -1 -14 4 -22 7 -11 9 -9 7 8 -1 24 -3 26 -11 14z"/>
<path d="M4694 1022 c4 -3 14 -7 22 -8 9 -1 13 0 10 4 -4 3 -14 7 -22 8 -9 1
-13 0 -10 -4z"/>
<path d="M4816 1018 c3 -4 11 -5 19 -1 21 7 19 12 -4 10 -11 0 -18 -5 -15 -9z"/>
<path d="M5050 1020 c0 -5 5 -10 11 -10 5 0 7 5 4 10 -3 6 -8 10 -11 10 -2 0
-4 -4 -4 -10z"/>
<path d="M5095 1020 c-3 -5 -1 -10 4 -10 6 0 11 5 11 10 0 6 -2 10 -4 10 -3 0
-8 -4 -11 -10z"/>
<path d="M6755 1020 c-3 -5 -1 -10 4 -10 6 0 11 5 11 10 0 6 -2 10 -4 10 -3 0
-8 -4 -11 -10z"/>
<path d="M4395 1011 c-3 -5 -2 -12 3 -15 5 -3 9 1 9 9 0 17 -3 19 -12 6z"/>
<path d="M6716 1007 c3 -10 9 -15 12 -12 3 3 0 11 -7 18 -10 9 -11 8 -5 -6z"/>
<path d="M3430 996 c7 -7 13 -7 20 0 6 6 3 10 -10 10 -13 0 -16 -4 -10 -10z"/>
<path d="M4280 995 c-7 -9 -11 -17 -9 -20 3 -2 10 5 17 15 14 24 10 26 -8 5z"/>
<path d="M4934 996 c1 -8 5 -18 8 -22 4 -3 5 1 4 10 -1 8 -5 18 -8 22 -4 3 -5
-1 -4 -10z"/>
<path d="M5430 998 c0 -4 4 -8 9 -8 6 0 12 4 15 8 3 5 -1 9 -9 9 -8 0 -15 -4
-15 -9z"/>
<path d="M4356 987 c3 -10 9 -15 12 -12 3 3 0 11 -7 18 -10 9 -11 8 -5 -6z"/>
<path d="M2210 979 c0 -5 5 -7 10 -4 6 3 10 8 10 11 0 2 -4 4 -10 4 -5 0 -10
-5 -10 -11z"/>
<path d="M2255 980 c3 -5 8 -10 11 -10 2 0 4 5 4 10 0 6 -5 10 -11 10 -5 0 -7
-4 -4 -10z"/>
<path d="M2335 980 c3 -5 8 -10 11 -10 2 0 4 5 4 10 0 6 -5 10 -11 10 -5 0 -7
-4 -4 -10z"/>
<path d="M2375 980 c3 -5 8 -10 11 -10 2 0 4 5 4 10 0 6 -5 10 -11 10 -5 0 -7
-4 -4 -10z"/>
<path d="M3210 980 c0 -5 5 -10 11 -10 5 0 7 5 4 10 -3 6 -8 10 -11 10 -2 0
-4 -4 -4 -10z"/>
<path d="M3794 982 c4 -3 14 -7 22 -8 9 -1 13 0 10 4 -4 3 -14 7 -22 8 -9 1
-13 0 -10 -4z"/>
<path d="M4086 982 c-3 -5 1 -9 9 -9 8 0 12 4 9 9 -3 4 -7 8 -9 8 -2 0 -6 -4
-9 -8z"/>
<path d="M4136 978 c3 -4 11 -5 19 -1 21 7 19 12 -4 10 -11 0 -18 -5 -15 -9z"/>
<path d="M4755 980 c3 -5 8 -10 11 -10 2 0 4 5 4 10 0 6 -5 10 -11 10 -5 0 -7
-4 -4 -10z"/>
<path d="M4966 978 c3 -5 10 -6 15 -3 13 9 11 12 -6 12 -8 0 -12 -4 -9 -9z"/>
<path d="M5094 978 c-4 -7 -4 -10 1 -6 4 4 15 2 24 -5 14 -11 14 -10 2 6 -16
20 -18 21 -27 5z"/>
<path d="M5210 980 c0 -5 5 -10 11 -10 5 0 7 5 4 10 -3 6 -8 10 -11 10 -2 0
-4 -4 -4 -10z"/>
<path d="M5290 979 c0 -5 5 -7 10 -4 6 3 10 8 10 11 0 2 -4 4 -10 4 -5 0 -10
-5 -10 -11z"/>
<path d="M5330 979 c0 -5 5 -7 10 -4 6 3 10 8 10 11 0 2 -4 4 -10 4 -5 0 -10
-5 -10 -11z"/>
<path d="M6570 979 c0 -5 5 -7 10 -4 6 3 10 8 10 11 0 2 -4 4 -10 4 -5 0 -10
-5 -10 -11z"/>
<path d="M6615 980 c-3 -5 -1 -10 4 -10 6 0 11 5 11 10 0 6 -2 10 -4 10 -3 0
-8 -4 -11 -10z"/>
<path d="M6696 982 c-3 -5 1 -9 9 -9 8 0 12 4 9 9 -3 4 -7 8 -9 8 -2 0 -6 -4
-9 -8z"/>
<path d="M3390 961 c0 -6 4 -13 10 -16 6 -3 7 1 4 9 -7 18 -14 21 -14 7z"/>
<path d="M3654 956 c1 -8 5 -18 8 -22 4 -3 5 1 4 10 -1 8 -5 18 -8 22 -4 3 -5
-1 -4 -10z"/>
<path d="M4025 960 c-3 -6 1 -7 9 -4 18 7 21 14 7 14 -6 0 -13 -4 -16 -10z"/>
<path d="M5433 955 c0 -8 4 -12 9 -9 4 3 8 9 8 15 0 5 -4 9 -8 9 -5 0 -9 -7
-9 -15z"/>
<path d="M6480 960 c-9 -6 -10 -10 -3 -10 6 0 15 5 18 10 8 12 4 12 -15 0z"/>
<path d="M2610 940 c0 -5 5 -10 11 -10 5 0 7 5 4 10 -3 6 -8 10 -11 10 -2 0
-4 -4 -4 -10z"/>
<path d="M3210 939 c0 -5 5 -7 10 -4 6 3 10 8 10 11 0 2 -4 4 -10 4 -5 0 -10
-5 -10 -11z"/>
<path d="M3699 948 c-5 -18 -6 -38 -1 -34 7 8 12 36 6 36 -2 0 -4 -1 -5 -2z"/>
<path d="M5155 939 c-3 -4 2 -6 10 -5 21 3 28 13 10 13 -9 0 -18 -4 -20 -8z"/>
<path d="M5250 939 c0 -5 5 -7 10 -4 6 3 10 8 10 11 0 2 -4 4 -10 4 -5 0 -10
-5 -10 -11z"/>
<path d="M5294 936 c1 -8 5 -18 8 -22 4 -3 5 1 4 10 -1 8 -5 18 -8 22 -4 3 -5
-1 -4 -10z"/>
<path d="M6210 939 c0 -5 5 -7 10 -4 6 3 10 8 10 11 0 2 -4 4 -10 4 -5 0 -10
-5 -10 -11z"/>
<path d="M6250 940 c0 -5 5 -10 11 -10 5 0 7 5 4 10 -3 6 -8 10 -11 10 -2 0
-4 -4 -4 -10z"/>
<path d="M2280 915 c-7 -9 -11 -17 -9 -20 3 -2 10 5 17 15 14 24 10 26 -8 5z"/>
<path d="M2710 919 c0 -5 5 -7 10 -4 6 3 10 8 10 11 0 2 -4 4 -10 4 -5 0 -10
-5 -10 -11z"/>
<path d="M2796 918 c3 -5 10 -6 15 -3 13 9 11 12 -6 12 -8 0 -12 -4 -9 -9z"/>
<path d="M2860 926 c0 -2 8 -10 18 -17 15 -13 16 -12 3 4 -13 16 -21 21 -21
13z"/>
<path d="M3414 916 c1 -8 5 -18 8 -22 4 -3 5 1 4 10 -1 8 -5 18 -8 22 -4 3 -5
-1 -4 -10z"/>
<path d="M3490 920 c0 -5 5 -10 11 -10 5 0 7 5 4 10 -3 6 -8 10 -11 10 -2 0
-4 -4 -4 -10z"/>
<path d="M3760 915 c-7 -9 -11 -17 -9 -20 3 -2 10 5 17 15 14 24 10 26 -8 5z"/>
<path d="M5710 926 c0 -2 7 -7 16 -10 8 -3 12 -2 9 4 -6 10 -25 14 -25 6z"/>
<path d="M6591 913 c7 -12 15 -20 18 -17 3 2 -3 12 -13 22 -17 16 -18 16 -5
-5z"/>
<path d="M3215 911 c-3 -5 -2 -12 3 -15 5 -3 9 1 9 9 0 17 -3 19 -12 6z"/>
<path d="M2316 898 c3 -4 11 -5 19 -1 21 7 19 12 -4 10 -11 0 -18 -5 -15 -9z"/>
<path d="M2435 899 c-3 -4 2 -6 10 -5 21 3 28 13 10 13 -9 0 -18 -4 -20 -8z"/>
<path d="M2610 899 c0 -5 5 -7 10 -4 6 3 10 8 10 11 0 2 -4 4 -10 4 -5 0 -10
-5 -10 -11z"/>
<path d="M3550 905 c0 -7 30 -13 34 -7 3 4 -4 9 -15 9 -10 1 -19 0 -19 -2z"/>
<path d="M5395 899 c-3 -4 2 -6 10 -5 21 3 28 13 10 13 -9 0 -18 -4 -20 -8z"/>
<path d="M5490 900 c0 -5 5 -10 11 -10 5 0 7 5 4 10 -3 6 -8 10 -11 10 -2 0
-4 -4 -4 -10z"/>
<path d="M5970 899 c0 -5 5 -7 10 -4 6 3 10 8 10 11 0 2 -4 4 -10 4 -5 0 -10
-5 -10 -11z"/>
<path d="M6210 900 c0 -5 5 -10 11 -10 5 0 7 5 4 10 -3 6 -8 10 -11 10 -2 0
-4 -4 -4 -10z"/>
<path d="M6250 899 c0 -5 5 -7 10 -4 6 3 10 8 10 11 0 2 -4 4 -10 4 -5 0 -10
-5 -10 -11z"/>
<path d="M6330 900 c0 -5 5 -10 11 -10 5 0 7 5 4 10 -3 6 -8 10 -11 10 -2 0
-4 -4 -4 -10z"/>
<path d="M6455 901 c-3 -5 -2 -12 3 -15 5 -3 9 1 9 9 0 17 -3 19 -12 6z"/>
<path d="M6550 899 c0 -5 5 -7 10 -4 6 3 10 8 10 11 0 2 -4 4 -10 4 -5 0 -10
-5 -10 -11z"/>
<path d="M2399 873 c-13 -16 -12 -17 4 -4 16 13 21 21 13 21 -2 0 -10 -8 -17
-17z"/>
<path d="M2750 879 c0 -5 5 -7 10 -4 6 3 10 8 10 11 0 2 -4 4 -10 4 -5 0 -10
-5 -10 -11z"/>
<path d="M3436 873 c-6 -14 -5 -15 5 -6 7 7 10 15 7 18 -3 3 -9 -2 -12 -12z"/>
<path d="M5315 880 c3 -5 8 -10 11 -10 2 0 4 5 4 10 0 6 -5 10 -11 10 -5 0 -7
-4 -4 -10z"/>
<path d="M6040 880 c-9 -6 -10 -10 -3 -10 6 0 15 5 18 10 8 12 4 12 -15 0z"/>
<path d="M2975 871 c-3 -5 -2 -12 3 -15 5 -3 9 1 9 9 0 17 -3 19 -12 6z"/>
<path d="M3114 862 c4 -3 14 -7 22 -8 9 -1 13 0 10 4 -4 3 -14 7 -22 8 -9 1
-13 0 -10 -4z"/>
<path d="M3213 855 c0 -8 4 -12 9 -9 5 3 6 10 3 15 -9 13 -12 11 -12 -6z"/>
<path d="M3293 855 c0 -8 4 -12 9 -9 5 3 6 10 3 15 -9 13 -12 11 -12 -6z"/>
<path d="M5510 860 c0 -5 5 -10 11 -10 5 0 7 5 4 10 -3 6 -8 10 -11 10 -2 0
-4 -4 -4 -10z"/>
<path d="M5676 862 c-3 -5 1 -9 9 -9 8 0 12 4 9 9 -3 4 -7 8 -9 8 -2 0 -6 -4
-9 -8z"/>
<path d="M5894 856 c1 -8 5 -18 8 -22 4 -3 5 1 4 10 -1 8 -5 18 -8 22 -4 3 -5
-1 -4 -10z"/>
<path d="M6250 859 c0 -5 5 -7 10 -4 6 3 10 8 10 11 0 2 -4 4 -10 4 -5 0 -10
-5 -10 -11z"/>
<path d="M3033 845 c0 -8 4 -12 9 -9 5 3 6 10 3 15 -9 13 -12 11 -12 -6z"/>
<path d="M4515 851 c-3 -5 -2 -12 3 -15 5 -3 9 1 9 9 0 17 -3 19 -12 6z"/>
<path d="M5229 843 c-13 -16 -12 -17 4 -4 9 7 17 15 17 17 0 8 -8 3 -21 -13z"/>
<path d="M2610 840 c0 -5 5 -10 11 -10 5 0 7 5 4 10 -3 6 -8 10 -11 10 -2 0
-4 -4 -4 -10z"/>
<path d="M2819 848 c-5 -18 -6 -38 -1 -34 7 8 12 36 6 36 -2 0 -4 -1 -5 -2z"/>
<path d="M2894 836 c1 -8 5 -18 8 -22 4 -3 5 1 4 10 -1 8 -5 18 -8 22 -4 3 -5
-1 -4 -10z"/>
<path d="M3170 840 c0 -5 5 -10 11 -10 5 0 7 5 4 10 -3 6 -8 10 -11 10 -2 0
-4 -4 -4 -10z"/>
<path d="M3375 840 c3 -5 8 -10 11 -10 2 0 4 5 4 10 0 6 -5 10 -11 10 -5 0 -7
-4 -4 -10z"/>
<path d="M5395 840 c3 -5 8 -10 11 -10 2 0 4 5 4 10 0 6 -5 10 -11 10 -5 0 -7
-4 -4 -10z"/>
<path d="M5990 837 c0 -2 6 -10 14 -16 11 -9 16 -9 22 1 4 7 4 10 -1 6 -4 -4
-14 -3 -22 3 -7 6 -13 9 -13 6z"/>
<path d="M2686 822 c-3 -5 1 -9 9 -9 8 0 12 4 9 9 -3 4 -7 8 -9 8 -2 0 -6 -4
-9 -8z"/>
<path d="M2750 819 c0 -5 5 -7 10 -4 6 3 10 8 10 11 0 2 -4 4 -10 4 -5 0 -10
-5 -10 -11z"/>
<path d="M2973 815 c0 -8 4 -12 9 -9 5 3 6 10 3 15 -9 13 -12 11 -12 -6z"/>
<path d="M5766 822 c-3 -5 1 -9 9 -9 8 0 12 4 9 9 -3 4 -7 8 -9 8 -2 0 -6 -4
-9 -8z"/>
<path d="M5816 818 c3 -5 10 -6 15 -3 13 9 11 12 -6 12 -8 0 -12 -4 -9 -9z"/>
<path d="M5919 813 c-12 -16 -12 -17 2 -6 9 7 20 9 24 5 5 -4 5 -1 1 6 -9 16
-11 15 -27 -5z"/>
<path d="M6056 818 c3 -5 10 -6 15 -3 13 9 11 12 -6 12 -8 0 -12 -4 -9 -9z"/>
<path d="M6115 819 c-3 -4 2 -6 10 -5 21 3 28 13 10 13 -9 0 -18 -4 -20 -8z"/>
<path d="M4749 803 c-13 -16 -12 -17 4 -4 9 7 17 15 17 17 0 8 -8 3 -21 -13z"/>
<path d="M5595 809 c-4 -6 -5 -12 -2 -15 2 -3 7 2 10 11 7 17 1 20 -8 4z"/>
<path d="M2193 795 c0 -8 4 -12 9 -9 5 3 6 10 3 15 -9 13 -12 11 -12 -6z"/>
<path d="M2870 800 c0 -5 5 -10 11 -10 5 0 7 5 4 10 -3 6 -8 10 -11 10 -2 0
-4 -4 -4 -10z"/>
<path d="M6780 806 c0 -2 8 -10 18 -17 15 -13 16 -12 3 4 -13 16 -21 21 -21
13z"/>
<path d="M6030 785 c0 -5 5 -17 10 -25 5 -8 10 -10 10 -5 0 6 -5 17 -10 25 -5
8 -10 11 -10 5z"/>
<path d="M5750 766 c0 -2 7 -7 16 -10 8 -3 12 -2 9 4 -6 10 -25 14 -25 6z"/>
<path d="M6546 698 c3 -5 10 -6 15 -3 13 9 11 12 -6 12 -8 0 -12 -4 -9 -9z"/>
<path d="M2396 687 c3 -10 9 -15 12 -12 3 3 0 11 -7 18 -10 9 -11 8 -5 -6z"/>
<path d="M5796 678 c3 -5 10 -6 15 -3 13 9 11 12 -6 12 -8 0 -12 -4 -9 -9z"/>
<path d="M3295 640 c3 -5 8 -10 11 -10 2 0 4 5 4 10 0 6 -5 10 -11 10 -5 0 -7
-4 -4 -10z"/>
<path d="M2706 622 c-3 -5 1 -9 9 -9 8 0 15 4 15 9 0 4 -4 8 -9 8 -6 0 -12 -4
-15 -8z"/>
<path d="M2753 515 c0 -8 4 -12 9 -9 5 3 6 10 3 15 -9 13 -12 11 -12 -6z"/>
</g>
</svg>
